<?xml version="1.0" encoding="UTF-8"?>
<!DOCTYPE svg PUBLIC "-//W3C//DTD SVG 1.1//EN" "http://www.w3.org/Graphics/SVG/1.1/DTD/svg11.dtd">
<!-- Creator: CorelDRAW 2020 (64-Bit) -->
<svg xmlns="http://www.w3.org/2000/svg" xml:space="preserve" width="273px" height="273px" version="1.1" style="shape-rendering:geometricPrecision; text-rendering:geometricPrecision; image-rendering:optimizeQuality; fill-rule:evenodd; clip-rule:evenodd"
viewBox="0 0 5.62 5.62"
 xmlns:xlink="http://www.w3.org/1999/xlink"
 xmlns:xodm="http://www.corel.com/coreldraw/odm/2003">
 <defs>
  <style type="text/css">
   <![CDATA[
    .str0 {stroke:#303125;stroke-width:0.21;stroke-miterlimit:22.9256}
    .fil0 {fill:#7688A1}
    .fil17 {fill:#001CB2}
    .fil48 {fill:#001EB0}
    .fil19 {fill:#0020B0}
    .fil66 {fill:#0020BA}
    .fil36 {fill:#0021AC}
    .fil32 {fill:#0022B4}
    .fil9 {fill:#0024B9}
    .fil58 {fill:#0026B3}
    .fil46 {fill:#0027B9}
    .fil60 {fill:#0029B5}
    .fil12 {fill:#002BBB}
    .fil34 {fill:#002CB0}
    .fil22 {fill:#0030B3}
    .fil20 {fill:#0032B3}
    .fil49 {fill:#0033B2}
    .fil4 {fill:#0034BF}
    .fil70 {fill:#003BBA}
    .fil29 {fill:#003CBD}
    .fil25 {fill:#0049C2}
    .fil28 {fill:#0053C4}
    .fil45 {fill:#0054C0}
    .fil16 {fill:#0059DD}
    .fil71 {fill:#005BD2}
    .fil31 {fill:#0061C7}
    .fil53 {fill:#084AC2}
    .fil23 {fill:#1466CA}
    .fil30 {fill:#2C69C6}
    .fil72 {fill:#2E64C4}
    .fil37 {fill:#3375D4}
    .fil54 {fill:#3474CE}
    .fil51 {fill:#387BDD}
    .fil24 {fill:#3E75C6}
    .fil41 {fill:#4677CF}
    .fil40 {fill:#497BCC}
    .fil68 {fill:#4B77C9}
    .fil5 {fill:#5884D1}
    .fil65 {fill:#5885CF}
    .fil63 {fill:#617FD0}
    .fil64 {fill:#638BD5}
    .fil15 {fill:#7CA2E1}
    .fil21 {fill:#83A9E2}
    .fil73 {fill:#879EDA}
    .fil52 {fill:#8AABE6}
    .fil43 {fill:#92B0E1}
    .fil14 {fill:#9EB9E5}
    .fil50 {fill:#A5BEEA}
    .fil33 {fill:#BDC5DA}
    .fil61 {fill:#BDC6F6}
    .fil42 {fill:#CAD7EB}
    .fil69 {fill:#D0DEF0}
    .fil2 {fill:#D1DFF0}
    .fil27 {fill:#D5E0EF}
    .fil38 {fill:#DBE4F3}
    .fil62 {fill:#DCE3F5}
    .fil18 {fill:#DDE5F2}
    .fil8 {fill:#E8EEF8}
    .fil10 {fill:#EBF1F7}
    .fil47 {fill:#ECEFF6}
    .fil6 {fill:#EDEFF7}
    .fil59 {fill:#EDF2F8}
    .fil67 {fill:#F0F0FE}
    .fil56 {fill:#F0F5F7}
    .fil39 {fill:#F0F9F2}
    .fil57 {fill:#F3F5FB}
    .fil44 {fill:#F4F5F9}
    .fil11 {fill:#F6F7FC}
    .fil55 {fill:ghostwhite}
    .fil26 {fill:#F8F9FC}
    .fil13 {fill:#F8FBFD}
    .fil3 {fill:#FAFFFF}
    .fil7 {fill:#FBFCFD}
    .fil35 {fill:#FCFDFE}
    .fil1 {fill:#FEFEFE}
   ]]>
  </style>
 </defs>
 <g id="Слой_x0020_1">
  <metadata id="CorelCorpID_0Corel-Layer"/>
  <g id="_1373252149920">
   <polygon class="fil0 str0" points="3.71,0.11 1.91,0.11 1.91,0.36 1.39,0.36 1.39,0.62 1.14,0.62 1.14,0.88 0.88,0.88 0.88,1.14 0.62,1.14 0.62,1.39 0.36,1.39 0.36,1.91 0.11,1.91 0.11,3.71 0.36,3.71 0.36,4.22 0.62,4.22 0.62,4.48 0.88,4.48 0.88,4.74 1.14,4.74 1.14,5 1.39,5 1.39,5.25 1.91,5.25 1.91,5.51 3.71,5.51 3.71,5.25 4.22,5.25 4.22,5 4.48,5 4.48,4.74 4.74,4.74 4.74,4.48 5,4.48 5,4.22 5.25,4.22 5.25,3.71 5.51,3.71 5.51,1.91 5.25,1.91 5.25,1.39 5,1.39 5,1.14 4.74,1.14 4.74,0.88 4.48,0.88 4.48,0.62 4.22,0.62 4.22,0.36 3.71,0.36 "/>
   <g>
    <path class="fil1" d="M3.71 4.48l0.26 0 0 0.26 -0.26 0 0 -0.26zm-1.03 0l0.26 0 0 0.26 -0.26 0 0 -0.26zm-1.03 0l0.26 0 0 0.26 -0.26 0 0 -0.26zm1.54 -0.51l0.52 0 0 0.25 -0.52 0 0 -0.25zm-1.28 0l0.51 0 0 0.25 -0.51 0 0 -0.25zm2.31 -0.52l0.26 0 0 0.52 -0.26 0 0 -0.52zm-3.08 0l0.25 0 0 0.52 -0.25 0 0 -0.52zm2.83 -0.77l1.03 0 0 0.26 -1.03 0 0 -0.26zm-3.35 0l0.26 0 0 0.26 -0.26 0 0 -0.26zm1.55 -0.51l0 -0.26 0.51 0 0 -0.26 0.26 0 0 0.26 0.25 0 0 0.26 0.78 0 0 0.25 -0.52 0 0 0.26 0.26 0 0 0.51 0.26 0 0 0.52 -1.03 0 0 0.51 -0.26 0 0 -0.51 -0.51 0 0 -0.26 -0.26 0 0 0.26 -0.26 0 0 -0.52 0.26 0 0 -0.25 -0.77 0 0 -0.26 1.03 0 0 -0.26 -0.52 0 0 -0.25 0.52 0zm2.05 -0.52l0.26 0 0 0.52 -0.26 0 0 -0.52zm-3.08 0l0.25 0 0 0.52 -0.25 0 0 -0.52zm1.03 0.26l-0.26 0 0 -0.52 0.26 0 0 0.52zm1.28 -0.26l-0.26 0 0 -0.26 0.52 0 0 0.52 -0.26 0 0 -0.26zm-1.54 -0.26l-0.26 0 0 -0.51 0.26 0 0 0.51zm0.77 -0.51l0.26 0 0 0.26 -0.26 0 0 -0.26zm-0.77 -0.52l-0.52 0 0 0.26 -0.25 0 0 0.26 -0.26 0 0 0.26 -0.26 0 0 0.25 -0.26 0 0 0.52 -0.25 0 0 1.8 0.25 0 0 0.51 0.26 0 0 0.26 0.26 0 0 0.26 0.26 0 0 0.26 0.25 0 0 0.25 0.52 0 0 0.26 1.8 0 0 -0.26 0.51 0 0 -0.25 0.26 0 0 -0.26 0.26 0 0 -0.26 0.26 0 0 -0.26 0.25 0 0 -0.51 0.26 0 0 -1.8 -0.26 0 0 -0.52 -0.25 0 0 -0.25 -0.26 0 0 -0.26 -0.26 0 0 -0.26 -0.26 0 0 -0.26 -0.51 0 0 -0.25 -1.8 0 0 0.25z"/>
    <polygon class="fil1" points="2.42,2.68 2.42,2.94 2.68,2.94 2.68,3.19 2.94,3.19 2.94,2.42 2.68,2.42 2.68,2.68 "/>
    <polygon class="fil2" points="1.91,1.39 1.91,1.14 1.65,1.14 1.65,1.39 "/>
    <polygon class="fil3" points="3.45,1.65 3.45,1.39 3.19,1.39 3.19,1.65 "/>
    <polygon class="fil4" points="2.17,1.65 2.17,1.39 1.91,1.39 1.91,1.65 "/>
    <polygon class="fil5" points="3.71,1.65 3.71,1.39 3.45,1.39 3.45,1.65 "/>
    <polygon class="fil6" points="3.71,1.65 3.45,1.65 3.45,1.91 3.71,1.91 "/>
    <polygon class="fil7" points="1.39,1.91 1.39,1.65 1.14,1.65 1.14,1.91 "/>
    <polygon class="fil8" points="2.17,1.91 2.17,1.65 1.91,1.65 1.91,1.91 "/>
    <polygon class="fil9" points="2.94,1.91 2.94,1.65 2.68,1.65 2.68,1.91 "/>
    <polygon class="fil10" points="1.91,1.14 1.91,0.88 1.65,0.88 1.65,1.14 "/>
    <polygon class="fil11" points="4.48,1.91 4.48,1.65 4.22,1.65 4.22,1.91 "/>
    <polygon class="fil12" points="1.39,1.91 1.14,1.91 1.14,2.17 1.39,2.17 "/>
    <polygon class="fil13" points="2.42,2.17 2.42,1.91 2.17,1.91 2.17,2.17 "/>
    <polygon class="fil14" points="2.68,2.17 2.68,1.91 2.42,1.91 2.42,2.17 "/>
    <polygon class="fil1" points="2.94,2.17 2.94,1.91 2.68,1.91 2.68,2.17 "/>
    <polygon class="fil15" points="3.19,2.17 3.19,1.91 2.94,1.91 2.94,2.17 "/>
    <polygon class="fil16" points="4.48,1.91 4.22,1.91 4.22,2.17 4.48,2.17 "/>
    <polygon class="fil17" points="1.91,2.42 1.91,2.17 1.65,2.17 1.65,2.42 "/>
    <polygon class="fil18" points="2.17,2.42 2.17,2.17 1.91,2.17 1.91,2.42 "/>
    <polygon class="fil19" points="2.42,2.42 2.42,2.17 2.17,2.17 2.17,2.42 "/>
    <polygon class="fil20" points="2.68,2.42 2.68,2.17 2.42,2.17 2.42,2.42 "/>
    <polygon class="fil21" points="2.94,2.42 2.94,2.17 2.68,2.17 2.68,2.42 "/>
    <polygon class="fil22" points="3.19,2.42 3.19,2.17 2.94,2.17 2.94,2.42 "/>
    <polygon class="fil23" points="3.45,2.42 3.45,2.17 3.19,2.17 3.19,2.42 "/>
    <polygon class="fil24" points="3.71,2.42 3.71,2.17 3.45,2.17 3.45,2.42 "/>
    <polygon class="fil25" points="3.71,2.17 3.71,2.42 3.97,2.42 3.97,2.17 "/>
    <polygon class="fil26" points="3.45,2.68 3.45,2.42 3.19,2.42 3.19,2.68 "/>
    <polygon class="fil27" points="2.42,2.68 2.42,2.42 2.17,2.42 2.17,2.68 "/>
    <polygon class="fil28" points="2.68,2.42 2.42,2.42 2.42,2.68 2.68,2.68 "/>
    <polygon class="fil29" points="3.19,2.68 3.19,2.42 2.94,2.42 2.94,2.68 "/>
    <polygon class="fil30" points="4.48,2.94 4.48,2.68 4.22,2.68 4.22,2.94 "/>
    <polygon class="fil31" points="0.62,2.94 0.88,2.94 0.88,2.68 0.62,2.68 "/>
    <polygon class="fil32" points="1.39,2.94 1.39,2.68 1.14,2.68 1.14,2.94 "/>
    <polygon class="fil33" points="1.65,2.94 1.65,2.68 1.39,2.68 1.39,2.94 "/>
    <polygon class="fil7" points="1.91,2.94 1.91,2.68 1.65,2.68 1.65,2.94 "/>
    <polygon class="fil22" points="2.17,2.94 2.17,2.68 1.91,2.68 1.91,2.94 "/>
    <polygon class="fil34" points="2.42,2.94 2.42,2.68 2.17,2.68 2.17,2.94 "/>
    <polygon class="fil35" points="3.19,2.94 3.19,2.68 2.94,2.68 2.94,2.94 "/>
    <polygon class="fil22" points="3.45,2.94 3.45,2.68 3.19,2.68 3.19,2.94 "/>
    <polygon class="fil36" points="3.71,2.94 3.71,2.68 3.45,2.68 3.45,2.94 "/>
    <polygon class="fil37" points="4.22,2.94 4.22,2.68 3.97,2.68 3.97,2.94 "/>
    <polygon class="fil38" points="4.74,2.94 4.74,2.68 4.48,2.68 4.48,2.94 "/>
    <polygon class="fil39" points="4.74,2.68 4.74,2.94 5,2.94 5,2.68 "/>
    <polygon class="fil40" points="2.17,3.19 2.17,2.94 1.91,2.94 1.91,3.19 "/>
    <polygon class="fil41" points="3.45,3.19 3.45,2.94 3.19,2.94 3.19,3.19 "/>
    <polygon class="fil42" points="3.71,3.19 3.71,2.94 3.45,2.94 3.45,3.19 "/>
    <polygon class="fil43" points="2.42,3.19 2.42,2.94 2.17,2.94 2.17,3.19 "/>
    <polygon class="fil44" points="2.68,3.19 2.68,2.94 2.42,2.94 2.42,3.19 "/>
    <polygon class="fil45" points="2.68,1.14 2.94,1.14 2.94,0.88 2.68,0.88 "/>
    <polygon class="fil26" points="3.19,3.19 3.19,2.94 2.94,2.94 2.94,3.19 "/>
    <polygon class="fil46" points="1.91,3.45 1.91,3.19 1.65,3.19 1.65,3.45 "/>
    <polygon class="fil47" points="2.17,3.45 2.17,3.19 1.91,3.19 1.91,3.45 "/>
    <polygon class="fil48" points="2.42,3.45 2.42,3.19 2.17,3.19 2.17,3.45 "/>
    <polygon class="fil49" points="2.68,3.45 2.68,3.19 2.42,3.19 2.42,3.45 "/>
    <polygon class="fil50" points="2.94,3.45 2.94,3.19 2.68,3.19 2.68,3.45 "/>
    <polygon class="fil20" points="3.19,3.45 3.19,3.19 2.94,3.19 2.94,3.45 "/>
    <polygon class="fil51" points="3.45,3.45 3.45,3.19 3.19,3.19 3.19,3.45 "/>
    <polygon class="fil52" points="3.71,3.45 3.71,3.19 3.45,3.19 3.45,3.45 "/>
    <polygon class="fil53" points="3.97,3.45 3.97,3.19 3.71,3.19 3.71,3.45 "/>
    <polygon class="fil54" points="2.42,3.71 2.42,3.45 2.17,3.45 2.17,3.71 "/>
    <polygon class="fil55" points="3.71,3.71 3.71,3.45 3.45,3.45 3.45,3.71 "/>
    <polygon class="fil56" points="3.97,3.45 3.71,3.45 3.71,3.71 3.97,3.71 "/>
    <polygon class="fil57" points="1.39,3.71 1.39,3.45 1.14,3.45 1.14,3.71 "/>
    <polygon class="fil18" points="1.91,3.45 1.65,3.45 1.65,3.71 1.91,3.71 "/>
    <polygon class="fil58" points="2.68,3.71 2.68,3.45 2.42,3.45 2.42,3.71 "/>
    <polygon class="fil59" points="2.94,3.71 2.94,3.45 2.68,3.45 2.68,3.71 "/>
    <polygon class="fil60" points="3.19,3.71 3.19,3.45 2.94,3.45 2.94,3.71 "/>
    <polygon class="fil61" points="3.45,3.71 3.45,3.45 3.19,3.45 3.19,3.71 "/>
    <polygon class="fil62" points="4.48,3.71 4.48,3.45 4.22,3.45 4.22,3.71 "/>
    <polygon class="fil63" points="1.39,3.71 1.14,3.71 1.14,3.97 1.39,3.97 "/>
    <polygon class="fil64" points="4.48,3.71 4.22,3.71 4.22,3.97 4.48,3.97 "/>
    <polygon class="fil65" points="2.94,3.97 2.94,3.71 2.68,3.71 2.68,3.97 "/>
    <polygon class="fil66" points="2.17,4.22 2.17,3.97 1.91,3.97 1.91,4.22 "/>
    <polygon class="fil67" points="2.17,3.97 2.17,4.22 2.42,4.22 2.42,3.97 "/>
    <polygon class="fil68" points="2.94,3.97 2.68,3.97 2.68,4.22 2.94,4.22 "/>
    <polygon class="fil69" points="3.45,4.22 3.45,3.97 3.19,3.97 3.19,4.22 "/>
    <polygon class="fil70" points="3.45,3.97 3.45,4.22 3.71,4.22 3.71,3.97 "/>
    <polygon class="fil71" points="1.65,4.74 1.91,4.74 1.91,4.48 1.65,4.48 "/>
    <polygon class="fil72" points="2.68,4.74 2.94,4.74 2.94,4.48 2.68,4.48 "/>
    <polygon class="fil73" points="3.71,4.74 3.97,4.74 3.97,4.48 3.71,4.48 "/>
   </g>
  </g>
 </g>
</svg>
