<?xml version="1.0" encoding="UTF-8"?>
<!DOCTYPE svg PUBLIC "-//W3C//DTD SVG 1.1//EN" "http://www.w3.org/Graphics/SVG/1.1/DTD/svg11.dtd">
<!-- Creator: CorelDRAW 2020 (64-Bit) -->
<svg xmlns="http://www.w3.org/2000/svg" xml:space="preserve" width="273px" height="273px" version="1.1" style="shape-rendering:geometricPrecision; text-rendering:geometricPrecision; image-rendering:optimizeQuality; fill-rule:evenodd; clip-rule:evenodd"
viewBox="0 0 5.62 5.62"
 xmlns:xlink="http://www.w3.org/1999/xlink"
 xmlns:xodm="http://www.corel.com/coreldraw/odm/2003">
 <defs>
  <style type="text/css">
   <![CDATA[
    .str0 {stroke:#303125;stroke-width:0.21;stroke-miterlimit:22.9256}
    .fil0 {fill:#7688A1}
    .fil6 {fill:#FEBE00}
    .fil15 {fill:#FEC200}
    .fil5 {fill:#FEEEC1}
    .fil12 {fill:#FEF6E0}
    .fil2 {fill:#FEFEFE}
    .fil1 {fill:#FFB900}
    .fil3 {fill:#FFBA00}
    .fil7 {fill:#FFC300}
    .fil4 {fill:#FFD45E}
    .fil8 {fill:#FFDC81}
    .fil10 {fill:#FFE191}
    .fil9 {fill:#FFE5A1}
    .fil11 {fill:#FFE6A2}
    .fil13 {fill:#FFF6E1}
    .fil14 {fill:#FFFAEF}
   ]]>
  </style>
 </defs>
 <g id="Слой_x0020_1">
  <metadata id="CorelCorpID_0Corel-Layer"/>
  <g id="_1372702760736">
   <polygon class="fil0 str0" points="3.71,0.11 1.91,0.11 1.91,0.36 1.39,0.36 1.39,0.62 1.14,0.62 1.14,0.88 0.88,0.88 0.88,1.14 0.62,1.14 0.62,1.39 0.36,1.39 0.36,1.91 0.11,1.91 0.11,3.71 0.36,3.71 0.36,4.22 0.62,4.22 0.62,4.48 0.88,4.48 0.88,4.74 1.14,4.74 1.14,5 1.39,5 1.39,5.25 1.91,5.25 1.91,5.51 3.71,5.51 3.71,5.25 4.22,5.25 4.22,5 4.48,5 4.48,4.74 4.74,4.74 4.74,4.48 5,4.48 5,4.22 5.25,4.22 5.25,3.71 5.51,3.71 5.51,1.91 5.25,1.91 5.25,1.39 5,1.39 5,1.14 4.74,1.14 4.74,0.88 4.48,0.88 4.48,0.62 4.22,0.62 4.22,0.36 3.71,0.36 "/>
   <g>
    <path class="fil1" d="M3.97 3.97l-0.26 0 0 0.25 -0.26 0 0 -0.25 0 -0.26 0.26 0 0 -0.26 0.25 0 0.01 -0.77 0.25 0 0.26 0 0 1.03 -0.26 0 0 0.26 -0.25 0zm-2.58 -1.29l0.26 0 0 0.77 0.26 0 0 0.26 0.26 0 0 0.26 0 0.25 -0.26 0 0 -0.25 -0.26 0 -0.26 0 0 -0.26 -0.25 0 0 -1.03 0.25 0zm2.06 0.26l0.26 0 0 0.51 -0.26 0 0 -0.51zm-1.28 0l0 0.51 -0.26 0 0 -0.51 0.26 0zm-0.78 -0.52l-0.25 0 0 -0.51 0.25 0 0 -0.26 0.26 0 0.01 0.26 0.25 0 0 0.26 -0.25 0 -0.01 0.25 -0.26 0zm0.77 -1.03l0.26 0 -0.02 -0.25 0.8 0 0 0.25 0.25 0 0.26 0 0 0.25 0.25 0 0.27 0 0 0.27 0.25 0 0 0.51 -0.26 0 -0.25 0 0 -0.25 -0.26 0 0 0.51 -0.26 0 0 0.26 -0.25 0 -0.01 0.77 -0.25 0 0 0.26 0.26 0 0 0.51 -0.25 0 0 0.27 -0.28 0 0 -0.27 -0.25 0 0 -0.51 0.26 0 0 -0.26 -0.26 0 0 -0.77 -0.25 0 0 -0.26 -0.26 0 0 -0.51 0.77 0 0 -0.52 -0.52 0 -0.25 0 0 -0.26 0.25 0zm-0.25 -1.03l-0.52 0 0 0.26 -0.25 0 0 0.26 -0.26 0 0 0.26 -0.26 0 0 0.25 -0.26 0 0 0.52 -0.25 0 0 1.8 0.25 0 0 0.51 0.26 0 0 0.26 0.26 0 0 0.26 0.26 0 0 0.26 0.25 0 0 0.25 0.52 0 0 0.26 1.8 0 0 -0.26 0.51 0 0 -0.25 0.26 0 0 -0.26 0.26 0 0 -0.26 0.26 0 0 -0.26 0.25 0 0 -0.51 0.26 0 0 -1.8 -0.26 0 0 -0.52 -0.25 0 0 -0.25 -0.26 0 0 -0.26 -0.26 0 0 -0.26 -0.26 0 0 -0.26 -0.51 0 0 -0.25 -1.8 0 0 0.25z"/>
    <polygon class="fil2" points="2.17,2.94 2.42,2.94 2.42,3.71 2.68,3.71 2.68,3.97 2.94,3.97 2.94,3.71 3.19,3.71 3.2,2.94 3.45,2.94 3.45,2.68 3.71,2.68 3.71,2.17 2.94,2.17 2.94,2.42 2.68,2.42 2.68,2.17 1.91,2.17 1.91,2.68 2.17,2.68 "/>
    <polygon class="fil2" points="2.16,1.39 2.16,1.65 2.68,1.65 2.68,1.39 2.94,1.39 2.94,1.65 3.2,1.65 3.45,1.65 3.45,1.39 3.2,1.39 3.2,1.14 2.4,1.14 2.42,1.39 "/>
    <polygon class="fil3" points="2.94,2.17 3.71,2.17 3.71,1.91 3.71,1.64 3.45,1.65 3.45,1.91 3.2,1.91 3.2,1.65 2.94,1.65 "/>
    <polygon class="fil2" points="2.67,4.48 2.95,4.48 3.2,4.48 3.2,3.97 2.94,3.97 2.94,4.22 2.68,4.22 2.68,3.97 2.42,3.97 2.42,4.48 "/>
    <polygon class="fil2" points="1.39,3.71 1.65,3.71 1.65,3.45 1.65,2.68 1.39,2.68 "/>
    <polygon class="fil2" points="3.96,3.45 3.97,3.71 4.22,3.71 4.22,2.68 3.97,2.68 "/>
    <polygon class="fil4" points="4.22,3.71 4.48,3.71 4.48,2.68 4.22,2.68 "/>
    <polygon class="fil5" points="1.39,3.71 1.39,2.68 1.14,2.68 1.14,3.71 "/>
    <polygon class="fil2" points="3.71,2.17 3.97,2.17 3.97,2.42 4.22,2.42 4.23,1.91 3.96,1.91 3.71,1.91 "/>
    <polygon class="fil2" points="1.39,2.42 1.65,2.42 1.66,2.17 1.66,1.91 1.39,1.91 "/>
    <polygon class="fil2" points="1.65,3.97 1.91,3.97 2.17,3.97 2.17,3.71 1.91,3.71 1.65,3.71 "/>
    <polygon class="fil2" points="3.45,3.97 3.71,3.97 3.97,3.97 3.97,3.71 3.71,3.71 3.45,3.71 "/>
    <polygon class="fil2" points="3.71,3.45 3.71,2.94 3.45,2.94 3.45,3.45 "/>
    <polygon class="fil2" points="1.91,3.45 2.17,3.45 2.17,2.94 1.91,2.94 "/>
    <polygon class="fil2" points="2.68,2.17 2.94,2.17 2.94,1.65 2.68,1.65 "/>
    <polygon class="fil5" points="1.39,2.42 1.39,1.91 1.14,1.91 1.14,2.42 "/>
    <polygon class="fil4" points="4.22,2.42 4.48,2.42 4.48,1.91 4.23,1.91 "/>
    <polygon class="fil6" points="2.95,4.48 2.67,4.48 2.67,4.75 2.95,4.75 "/>
    <polygon class="fil7" points="3.96,1.91 4.23,1.91 4.23,1.64 3.96,1.64 "/>
    <polygon class="fil4" points="1.39,1.91 1.66,1.91 1.65,1.65 1.39,1.65 "/>
    <polygon class="fil6" points="3.71,1.91 3.96,1.91 3.96,1.64 3.71,1.64 "/>
    <polygon class="fil8" points="3.97,3.97 4.22,3.97 4.22,3.71 3.97,3.71 "/>
    <polygon class="fil9" points="1.65,3.97 1.65,3.71 1.39,3.71 1.39,3.97 "/>
    <polygon class="fil10" points="2.16,1.65 2.16,1.39 1.91,1.39 1.91,1.65 "/>
    <polygon class="fil4" points="3.45,1.65 3.71,1.64 3.71,1.39 3.45,1.39 "/>
    <polygon class="fil3" points="2.68,1.65 2.94,1.65 2.94,1.39 2.68,1.39 "/>
    <polygon class="fil3" points="2.94,3.97 2.68,3.97 2.68,4.22 2.94,4.22 "/>
    <polygon class="fil3" points="2.94,2.17 2.68,2.17 2.68,2.42 2.94,2.42 "/>
    <polygon class="fil11" points="1.65,3.71 1.91,3.71 1.91,3.45 1.65,3.45 "/>
    <polygon class="fil5" points="3.71,3.97 3.45,3.97 3.45,4.22 3.71,4.22 "/>
    <polygon class="fil12" points="2.17,3.97 1.91,3.97 1.91,4.22 2.17,4.22 "/>
    <polygon class="fil13" points="3.71,3.71 3.97,3.71 3.96,3.45 3.71,3.45 "/>
    <polygon class="fil14" points="1.66,2.17 1.91,2.17 1.91,1.91 1.66,1.91 "/>
    <polygon class="fil15" points="3.45,1.65 3.2,1.65 3.2,1.91 3.45,1.91 "/>
   </g>
  </g>
 </g>
</svg>
