<?xml version="1.0" encoding="UTF-8"?>
<!DOCTYPE svg PUBLIC "-//W3C//DTD SVG 1.1//EN" "http://www.w3.org/Graphics/SVG/1.1/DTD/svg11.dtd">
<!-- Creator: CorelDRAW 2020 (64-Bit) -->
<svg xmlns="http://www.w3.org/2000/svg" xml:space="preserve" width="273px" height="273px" version="1.1" style="shape-rendering:geometricPrecision; text-rendering:geometricPrecision; image-rendering:optimizeQuality; fill-rule:evenodd; clip-rule:evenodd"
viewBox="0 0 5.62 5.62"
 xmlns:xlink="http://www.w3.org/1999/xlink"
 xmlns:xodm="http://www.corel.com/coreldraw/odm/2003">
 <defs>
  <style type="text/css">
   <![CDATA[
    .str0 {stroke:#303125;stroke-width:0.21;stroke-miterlimit:22.9256}
    .fil0 {fill:#7688A1}
    .fil36 {fill:#FE8C00}
    .fil16 {fill:#FE9901}
    .fil12 {fill:#FEB049}
    .fil33 {fill:#FF8A00}
    .fil8 {fill:#FF8D00}
    .fil7 {fill:#FF8E00}
    .fil10 {fill:#FF9100}
    .fil1 {fill:#FF9400}
    .fil5 {fill:#FF9500}
    .fil9 {fill:#FF9600}
    .fil11 {fill:#FF9700}
    .fil6 {fill:#FF9800}
    .fil35 {fill:#FF9F1E}
    .fil21 {fill:#FFA023}
    .fil24 {fill:#FFA227}
    .fil20 {fill:#FFAD44}
    .fil29 {fill:#FFB456}
    .fil25 {fill:#FFB861}
    .fil30 {fill:#FFBA67}
    .fil15 {fill:#FFBC6B}
    .fil26 {fill:#FFC074}
    .fil27 {fill:#FFC37C}
    .fil28 {fill:#FFC681}
    .fil14 {fill:#FFC682}
    .fil17 {fill:#FFD39E}
    .fil13 {fill:#FFD6A5}
    .fil31 {fill:#FFD9AC}
    .fil32 {fill:#FFDFBA}
    .fil23 {fill:#FFE2C2}
    .fil34 {fill:#FFE9CE}
    .fil19 {fill:#FFEAD0}
    .fil22 {fill:#FFF8F0}
    .fil37 {fill:#FFFBF5}
    .fil18 {fill:#FFFCF9}
    .fil3 {fill:#FFFCFB}
    .fil4 {fill:#FFFEFE}
    .fil2 {fill:#FFFFFE}
   ]]>
  </style>
 </defs>
 <g id="Слой_x0020_1">
  <metadata id="CorelCorpID_0Corel-Layer"/>
  <g id="_1373247654528">
   <polygon class="fil0 str0" points="3.49,0.11 2.94,0.11 2.68,0.11 2.12,0.11 1.91,0.11 1.91,0.36 1.63,0.36 1.39,0.36 1.39,0.62 1.14,0.62 1.14,0.88 0.88,0.88 0.92,1.14 0.62,1.14 0.62,1.44 0.37,1.39 0.36,1.91 0.11,1.91 0.11,2.12 0.11,2.68 0.11,2.94 0.11,3.49 0.11,3.71 0.36,3.71 0.36,4.22 0.62,4.22 0.62,4.48 0.88,4.48 0.88,4.74 1.14,4.74 1.14,5 1.39,4.95 1.39,5.25 1.65,5.25 1.91,5.25 1.91,5.51 2.12,5.51 2.68,5.51 2.94,5.51 3.49,5.51 3.71,5.51 3.71,5.25 3.97,5.25 4.22,5.25 4.22,4.95 4.48,5 4.48,4.74 4.74,4.74 4.7,4.48 5,4.48 5,4.18 5.25,4.23 5.25,3.71 5.51,3.71 5.51,3.49 5.51,2.94 5.51,2.68 5.51,2.12 5.51,1.91 5.25,1.91 5.25,1.39 5,1.44 5,1.14 4.7,1.14 4.75,0.88 4.48,0.88 4.48,0.62 4.22,0.65 4.22,0.36 3.97,0.36 3.71,0.36 3.71,0.11 "/>
   <g>
    <path class="fil1" d="M3.71 1.91l0.26 0 0 0.25 0.25 0.01 0 0.51 -0.25 0 0 0.26 0 0.25 0 0.32 -0.01 0.2 -0.01 0.24 -0.24 0.01 -0.29 0.01 0.02 0.24 -0.5 0.02 -0.26 -0.01 0 0.26 -0.26 0 -0.25 0 -0.26 0 0 -0.26 0.01 -0.25 0.02 -0.26 -0.29 0 -0.26 0 0.01 -0.26 0.01 -0.24 0.24 -0.01 0.26 -0.01 0 -0.25 0.01 -0.23 0.24 0.03 0 -0.33 0.01 -0.24 -0.01 -0.26 -0.25 0 0 -0.26 0 -0.26 0.26 0 0.25 0 0.26 0 0 -0.25 0.26 0 0.25 0 0.26 0 0 0.25 0.26 0 0 0.29 -0.26 -0.03 0 0.26 0.26 0zm-2.08 -1.55l0 0.26 -0.24 0 -0.25 0 0 0.26 -0.26 0 0.04 0.26 0 0.3 -0.3 0 -0.25 -0.05 -0.01 0.52 -0.25 0 0 0.21 0.31 0 -0.06 0.56 -0.25 0 0 0.26 0.25 0 0 0.55 -0.25 0 0 0.22 0.25 0 0 0.51 0.26 0 0.26 0 0 0.26 0 0.26 0.26 0 0 0.26 0.25 -0.05 0.26 0 0 0.3 0.26 0 0 0.26 0.21 0 0 -0.31 0.56 0.05 0 0.26 0.26 0 0 -0.26 0.55 -0.05 0 0.31 0.22 0 0 -0.26 0.26 0 0 -0.3 0.25 0 0.26 0.05 0 -0.26 0.26 0 -0.04 -0.26 0 -0.3 0.3 0 0.25 0.05 0 -0.52 0.26 0 0 -0.22 -0.31 0 0.05 -0.55 0.26 0 0 -0.26 -0.25 0 -0.05 -0.56 0.3 0 0 -0.21 -0.26 0 0 -0.52 -0.25 0.05 -0.3 0 0 -0.3 0.05 -0.26 -0.27 0 0 -0.26 -0.26 0.03 -0.25 0 0 -0.29 -0.26 0 0 -0.25 -0.22 0 0 0.31 -0.55 -0.06 0 -0.25 -0.26 0 0 0.25 -0.56 0.05 0 -0.3 -0.21 0 0 0.25 -0.28 0z"/>
    <polygon class="fil2" points="3.19,2.94 3.19,3.2 3.45,3.2 3.45,3.45 3.19,3.45 3.19,3.73 3.41,3.75 3.42,3.97 3.71,3.96 3.74,3.71 3.77,3.51 3.97,3.51 3.97,3.19 3.71,3.19 3.71,2.94 3.71,2.67 3.45,2.67 3.19,2.68 "/>
    <polygon class="fil3" points="2.44,1.95 2.42,2.17 2.41,2.41 2.16,2.41 2.16,2.74 2.17,2.91 2.48,2.96 2.68,2.98 2.99,2.94 2.98,2.68 2.68,2.68 2.68,2.4 2.68,2.17 2.66,1.95 2.66,1.65 2.44,1.65 "/>
    <polygon class="fil4" points="2.14,3.19 2.14,3.71 2.17,3.97 2.42,3.97 2.68,3.97 2.96,3.97 2.96,3.71 2.68,3.71 2.68,3.45 2.42,3.45 2.43,3.19 2.48,2.96 2.17,2.91 "/>
    <polygon class="fil4" points="2.95,1.9 2.93,2.17 3.45,2.21 3.71,2.21 3.71,1.91 3.45,1.91 3.45,1.65 3.18,1.64 3.17,1.89 "/>
    <polygon class="fil3" points="3.45,2.43 3.45,2.67 3.71,2.67 3.97,2.68 3.97,2.16 3.71,2.21 3.45,2.21 "/>
    <polygon class="fil4" points="2.68,1.39 2.66,1.65 2.66,1.95 2.95,1.9 2.95,1.65 2.94,1.14 2.68,1.14 "/>
    <polygon class="fil1" points="2.68,3.19 2.68,3.45 2.94,3.45 3.19,3.45 3.19,3.2 2.96,3.19 2.99,2.94 2.68,2.98 "/>
    <polygon class="fil5" points="2.93,2.4 2.98,2.68 3.19,2.68 3.2,2.43 3.45,2.43 3.45,2.21 2.93,2.17 "/>
    <polygon class="fil6" points="3.49,0.11 2.94,0.11 2.94,0.36 3.49,0.42 "/>
    <polygon class="fil6" points="2.12,5.51 2.68,5.51 2.68,5.25 2.12,5.2 "/>
    <polygon class="fil6" points="2.94,5.51 3.49,5.51 3.49,5.2 2.94,5.25 "/>
    <polygon class="fil6" points="0.11,2.68 0.36,2.68 0.42,2.12 0.11,2.12 "/>
    <polygon class="fil6" points="5.51,3.49 5.51,2.94 5.25,2.94 5.2,3.49 "/>
    <polygon class="fil6" points="5.51,2.68 5.51,2.12 5.21,2.12 5.26,2.68 "/>
    <polygon class="fil6" points="2.68,0.11 2.12,0.11 2.12,0.41 2.68,0.36 "/>
    <polygon class="fil6" points="0.11,3.49 0.36,3.49 0.36,2.94 0.11,2.94 "/>
    <polygon class="fil7" points="3.97,2.68 4.22,2.68 4.22,2.17 3.97,2.16 "/>
    <polygon class="fil8" points="2.95,1.65 3.18,1.64 3.19,1.39 3.19,1.14 2.94,1.14 "/>
    <polygon class="fil8" points="2.94,4.23 3.44,4.21 3.42,3.97 2.96,3.97 "/>
    <polygon class="fil3" points="1.92,3.45 1.94,3.71 2.14,3.71 2.14,3.19 1.91,3.19 "/>
    <polygon class="fil3" points="2.96,3.97 3.42,3.97 3.41,3.75 3.19,3.73 2.96,3.71 "/>
    <polygon class="fil9" points="0.62,1.44 0.92,1.44 0.92,1.14 0.62,1.14 "/>
    <polygon class="fil9" points="5,1.44 5,1.14 4.7,1.14 4.7,1.44 "/>
    <polygon class="fil9" points="4.7,4.48 5,4.48 5,4.18 4.7,4.18 "/>
    <polygon class="fil9" points="3.97,5.25 4.22,5.25 4.22,4.95 3.97,4.95 "/>
    <polygon class="fil9" points="1.65,5.25 1.65,4.95 1.39,4.95 1.39,5.25 "/>
    <polygon class="fil2" points="2.16,1.91 2.44,1.95 2.44,1.65 2.16,1.65 "/>
    <polygon class="fil10" points="2.98,2.68 2.93,2.4 2.68,2.4 2.68,2.68 "/>
    <polygon class="fil11" points="4.22,0.65 4.22,0.36 3.97,0.36 3.97,0.65 "/>
    <polygon class="fil2" points="1.65,3.71 1.94,3.71 1.92,3.45 1.65,3.45 "/>
    <polygon class="fil12" points="3.71,2.21 3.97,2.16 3.97,1.91 3.71,1.91 "/>
    <polygon class="fil8" points="3.45,1.65 3.71,1.68 3.71,1.39 3.45,1.39 "/>
    <polygon class="fil13" points="2.68,4.22 2.94,4.23 2.96,3.97 2.68,3.97 "/>
    <polygon class="fil14" points="2.96,3.71 2.94,3.45 2.68,3.45 2.68,3.71 "/>
    <polygon class="fil15" points="2.16,1.65 2.44,1.65 2.42,1.39 2.17,1.39 "/>
    <polygon class="fil16" points="3.71,2.94 3.97,2.94 3.97,2.68 3.71,2.67 "/>
    <polygon class="fil17" points="1.65,3.45 1.92,3.45 1.91,3.19 1.65,3.2 "/>
    <polygon class="fil18" points="3.18,1.64 3.45,1.65 3.45,1.39 3.19,1.39 "/>
    <polygon class="fil19" points="2.42,4.48 2.68,4.48 2.68,4.22 2.42,4.22 "/>
    <polygon class="fil20" points="3.19,1.39 3.45,1.39 3.45,1.14 3.19,1.14 "/>
    <polygon class="fil21" points="2.17,4.48 2.42,4.48 2.42,4.22 2.17,4.22 "/>
    <polygon class="fil7" points="2.17,4.48 2.17,4.22 1.91,4.22 1.91,4.48 "/>
    <polygon class="fil11" points="0.88,4.48 0.88,4.22 0.62,4.22 0.62,4.48 "/>
    <polygon class="fil22" points="2.17,4.22 2.42,4.22 2.42,3.97 2.17,3.97 "/>
    <polygon class="fil23" points="2.16,1.91 2.16,1.65 1.91,1.65 1.91,1.91 "/>
    <polygon class="fil24" points="2.42,4.22 2.68,4.22 2.68,3.97 2.42,3.97 "/>
    <polygon class="fil25" points="1.91,1.65 2.16,1.65 2.17,1.39 1.91,1.39 "/>
    <polygon class="fil26" points="3.19,3.45 3.45,3.45 3.45,3.2 3.19,3.2 "/>
    <polygon class="fil27" points="2.96,3.71 3.19,3.73 3.19,3.45 2.94,3.45 "/>
    <polygon class="fil28" points="1.65,3.71 1.65,3.45 1.4,3.45 1.39,3.71 "/>
    <polygon class="fil19" points="3.97,3.19 3.97,2.94 3.71,2.94 3.71,3.19 "/>
    <polygon class="fil29" points="1.91,3.19 2.14,3.19 2.17,2.91 1.91,2.94 "/>
    <polygon class="fil30" points="2.68,3.45 2.68,3.19 2.43,3.19 2.42,3.45 "/>
    <polygon class="fil31" points="1.91,4.22 2.17,4.22 2.17,3.97 1.92,3.97 "/>
    <polygon class="fil32" points="2.68,2.17 2.93,2.17 2.95,1.9 2.66,1.95 "/>
    <polygon class="fil33" points="3.19,2.68 3.45,2.67 3.45,2.43 3.2,2.43 "/>
    <polygon class="fil34" points="2.16,2.41 2.41,2.41 2.42,2.17 2.17,2.17 "/>
    <polygon class="fil35" points="2.17,2.17 2.42,2.17 2.44,1.95 2.16,1.91 "/>
    <polygon class="fil8" points="2.44,1.65 2.66,1.65 2.68,1.39 2.42,1.39 "/>
    <polygon class="fil6" points="1.39,0.62 1.63,0.62 1.63,0.36 1.39,0.36 "/>
    <polygon class="fil7" points="1.4,3.45 1.65,3.45 1.65,3.2 1.41,3.21 "/>
    <polygon class="fil36" points="2.68,2.4 2.93,2.4 2.93,2.17 2.68,2.17 "/>
    <polygon class="fil8" points="3.71,3.96 3.95,3.95 3.96,3.71 3.74,3.71 "/>
    <polygon class="fil7" points="1.92,3.97 2.17,3.97 2.14,3.71 1.94,3.71 "/>
    <polygon class="fil37" points="2.95,1.9 3.17,1.89 3.18,1.64 2.95,1.65 "/>
    <polygon class="fil8" points="3.19,3.2 3.19,2.94 2.99,2.94 2.96,3.19 "/>
    <polygon class="fil18" points="2.99,2.94 3.19,2.94 3.19,2.68 2.98,2.68 "/>
    <polygon class="fil18" points="2.43,3.19 2.68,3.19 2.68,2.98 2.48,2.96 "/>
    <polygon class="fil36" points="1.91,2.94 2.17,2.91 2.16,2.74 1.92,2.71 "/>
    <polygon class="fil3" points="3.74,3.71 3.96,3.71 3.97,3.51 3.77,3.51 "/>
   </g>
  </g>
 </g>
</svg>
