<?xml version="1.0" encoding="UTF-8"?>
<!DOCTYPE svg PUBLIC "-//W3C//DTD SVG 1.1//EN" "http://www.w3.org/Graphics/SVG/1.1/DTD/svg11.dtd">
<!-- Creator: CorelDRAW 2020 (64-Bit) -->
<svg xmlns="http://www.w3.org/2000/svg" xml:space="preserve" width="273px" height="273px" version="1.1" style="shape-rendering:geometricPrecision; text-rendering:geometricPrecision; image-rendering:optimizeQuality; fill-rule:evenodd; clip-rule:evenodd"
viewBox="0 0 5.62 5.62"
 xmlns:xlink="http://www.w3.org/1999/xlink"
 xmlns:xodm="http://www.corel.com/coreldraw/odm/2003">
 <defs>
  <style type="text/css">
   <![CDATA[
    .str0 {stroke:#303125;stroke-width:0.21;stroke-miterlimit:22.9256}
    .fil0 {fill:#7688A1}
    .fil26 {fill:#1F1A05}
    .fil66 {fill:#4E4939}
    .fil60 {fill:#5E3E1F}
    .fil50 {fill:#635634}
    .fil64 {fill:#877445}
    .fil49 {fill:#89721D}
    .fil63 {fill:#89731C}
    .fil34 {fill:#8A7320}
    .fil24 {fill:#8F7420}
    .fil25 {fill:#8F7620}
    .fil53 {fill:#8F781F}
    .fil27 {fill:#907622}
    .fil58 {fill:#91781F}
    .fil43 {fill:#917821}
    .fil67 {fill:#927C3C}
    .fil61 {fill:#957C2A}
    .fil52 {fill:#998030}
    .fil45 {fill:#A08421}
    .fil65 {fill:#A08423}
    .fil46 {fill:#A18521}
    .fil40 {fill:#A28420}
    .fil32 {fill:#A88E3D}
    .fil19 {fill:#AD7A2A}
    .fil80 {fill:#B37500}
    .fil38 {fill:#BC9424}
    .fil23 {fill:#BD8C33}
    .fil77 {fill:#BF9A0C}
    .fil81 {fill:#C09A11}
    .fil56 {fill:#C29A09}
    .fil82 {fill:#C39B00}
    .fil78 {fill:#C48E25}
    .fil1 {fill:#C49F1F}
    .fil2 {fill:#C5A021}
    .fil71 {fill:#C68D32}
    .fil69 {fill:#C89D3D}
    .fil37 {fill:#CA9200}
    .fil62 {fill:#CA9238}
    .fil35 {fill:#CCA743}
    .fil36 {fill:#CEA52E}
    .fil16 {fill:#CEA847}
    .fil21 {fill:#D19633}
    .fil75 {fill:#D2B461}
    .fil74 {fill:#D2B85C}
    .fil59 {fill:#D5BC6F}
    .fil31 {fill:#D8D8D8}
    .fil70 {fill:#DAAC3F}
    .fil72 {fill:#DEB44F}
    .fil47 {fill:#DEBD62}
    .fil44 {fill:#DFB54A}
    .fil17 {fill:#DFC181}
    .fil57 {fill:#DFC672}
    .fil51 {fill:#E0C160}
    .fil15 {fill:#E1A822}
    .fil10 {fill:#E1C26F}
    .fil48 {fill:#E2BF76}
    .fil76 {fill:#E4E0DB}
    .fil29 {fill:#E6B643}
    .fil8 {fill:#E7CD83}
    .fil55 {fill:#E7D7AB}
    .fil6 {fill:#E8CE7D}
    .fil12 {fill:#E9E5DD}
    .fil28 {fill:#E9E7E0}
    .fil14 {fill:#EAD398}
    .fil54 {fill:#EBBA51}
    .fil68 {fill:#EBD596}
    .fil79 {fill:#EEDD9F}
    .fil11 {fill:#EFCC76}
    .fil5 {fill:#F1E8DA}
    .fil20 {fill:#F3D38C}
    .fil39 {fill:#F3DA9E}
    .fil73 {fill:#F5D685}
    .fil30 {fill:#F5DA9C}
    .fil7 {fill:#F5EDDB}
    .fil42 {fill:#F6CB69}
    .fil22 {fill:#F6EEB4}
    .fil13 {fill:#F6EFE1}
    .fil33 {fill:#F8F0E7}
    .fil18 {fill:#F9E096}
    .fil3 {fill:#F9F2E3}
    .fil4 {fill:#FAF3E5}
    .fil41 {fill:#FCDF97}
    .fil9 {fill:#FCF0DF}
   ]]>
  </style>
 </defs>
 <g id="Слой_x0020_1">
  <metadata id="CorelCorpID_0Corel-Layer"/>
  <g id="_1373264945744">
   <polygon class="fil0 str0" points="3.46,0.11 2.94,0.11 2.68,0.11 2.16,0.11 1.91,0.11 1.91,0.35 1.66,0.36 1.39,0.36 1.39,0.62 1.14,0.62 1.13,0.88 0.88,0.88 0.88,1.13 0.62,1.14 0.62,1.39 0.36,1.39 0.36,1.66 0.35,1.91 0.11,1.91 0.11,2.17 0.11,2.68 0.11,2.94 0.11,3.45 0.11,3.71 0.35,3.71 0.36,3.96 0.36,4.22 0.62,4.23 0.62,4.48 0.88,4.48 0.88,4.74 1.14,4.74 1.14,5 1.39,5 1.39,5.25 1.65,5.25 1.9,5.25 1.91,5.51 2.17,5.51 2.67,5.51 2.95,5.51 3.45,5.51 3.71,5.51 3.72,5.26 3.97,5.25 4.22,5.25 4.22,5 4.48,5 4.48,4.74 4.74,4.74 4.74,4.48 5,4.48 5,4.22 5.25,4.22 5.25,3.95 5.26,3.71 5.51,3.71 5.51,3.45 5.51,2.94 5.51,2.68 5.51,2.17 5.51,1.91 5.26,1.91 5.25,1.66 5.25,1.39 5,1.39 5,1.14 4.74,1.14 4.74,0.88 4.48,0.88 4.48,0.62 4.23,0.62 4.22,0.36 3.96,0.36 3.71,0.35 3.71,0.11 "/>
   <g>
    <polygon class="fil1" points="1.39,0.62 1.39,0.88 1.13,0.88 1.13,1.13 0.88,1.13 0.88,1.39 0.62,1.39 0.62,1.66 0.36,1.66 0.35,1.91 0.36,2.17 0.36,2.68 0.36,2.94 0.36,3.45 0.35,3.71 0.36,3.96 0.62,3.96 0.62,4.23 0.89,4.23 0.88,4.48 1.14,4.48 1.14,3.68 1.13,3.44 0.89,3.44 0.88,3.19 0.87,2.94 0.88,2.68 0.89,2.42 0.89,2.19 1.14,2.17 1.13,1.91 1.13,1.64 1.39,1.64 1.4,1.39 1.4,1.14 1.62,1.14 1.62,1.39 1.89,1.39 1.9,1.13 1.89,0.61 2.17,0.61 2.18,0.88 2.42,0.88 2.42,1.14 3.2,1.13 3.45,1.14 3.46,0.88 3.72,0.88 3.71,0.61 3.96,0.61 3.96,0.36 3.71,0.35 3.46,0.36 2.94,0.36 2.68,0.36 2.16,0.36 1.91,0.35 1.66,0.36 1.66,0.62 "/>
    <polygon class="fil2" points="4.22,1.65 4.22,1.91 4.48,1.91 4.48,2.17 4.48,2.42 4.48,2.68 4.48,2.96 4.48,3.2 4.48,3.47 4.74,3.48 4.74,3.76 4.49,3.73 4.5,3.96 4.49,4.48 4.74,4.48 4.74,4.22 5,4.22 5,3.95 5.25,3.95 5.26,3.71 5.26,3.45 5.25,2.94 5.25,2.68 5.26,2.17 5.26,1.91 5.25,1.66 5,1.66 5,1.39 4.74,1.39 4.74,1.14 4.48,1.14 4.48,0.88 4.22,0.88 "/>
    <path class="fil3" d="M3.45 2.41l0 0.77 0 0.27 -0.27 0 0.06 0.26 0.04 0.31c-0.35,-0.05 -0.31,-0.1 -0.6,-0.14 -0.14,-0.01 -0.45,0 -0.6,0l0 0.34 0.36 0 1.01 0 0.25 0 0.03 -1 0.27 0 -0.04 -1.07 -0.51 -0.01 0 0.27z"/>
    <path class="fil4" d="M2.36 2.67l0.03 0.53 0.02 0.25 -0.76 0 0 0.26 -0.25 -0.02 0 0.52 0.25 0.01 0.43 0 0 -0.34c0.15,0 0.46,-0.01 0.6,0 0.29,0.04 0.25,0.09 0.6,0.14l-0.04 -0.31 -0.34 -0.01 -0.21 0 -0.01 -1.28 0 -0.25 -0.27 0 -0.05 0.5z"/>
    <path class="fil5" d="M3.96 2.15l0.04 1.07 -0.27 0 -0.03 1 0.26 0.02 0 -0.28 0.26 0 0 -0.25 0 -0.26 0 -0.25 0.26 0 0 -0.24 -0.26 0 0 -0.28 0 -0.26 0 -0.25 0 -0.26 0 -0.26 -0.26 0 0 -0.25 -0.25 0 -0.31 -0.01 0.14 0.26c0.41,0.23 -0.19,-0.15 0.14,0.08 0.08,0.05 0.06,0.04 0.12,0.11 0.13,0.14 0.08,0.03 0.16,0.31z"/>
    <polygon class="fil6" points="3.43,4.49 3.4,4.69 2.7,4.76 2.7,5.02 2.43,5.02 2.43,5.25 2.67,5.25 2.95,5.25 3.45,5.26 3.72,5.26 3.72,5 3.97,5 3.97,4.74 4.22,4.74 4.24,4.49 4.26,4.26 3.96,4.24 3.7,4.22 3.7,4.47 "/>
    <path class="fil7" d="M2.41 1.96l0.27 -0.04 0.26 -0.01 0.25 0 0 0.26 0.26 -0.03 0.51 0.01c-0.08,-0.28 -0.03,-0.17 -0.16,-0.31 -0.06,-0.07 -0.04,-0.06 -0.12,-0.11 -0.33,-0.23 0.27,0.15 -0.14,-0.08l-0.14 -0.26 -0.2 0 -1.01 0c-0.02,0.28 -0.06,0.29 -0.11,0.61l0.33 -0.04z"/>
    <polygon class="fil8" points="2.9,3.7 2.91,3.17 3.17,3.17 3.45,3.18 3.45,2.41 3.19,2.41 2.94,2.42 2.68,2.42 2.69,3.7 "/>
    <path class="fil9" d="M1.39 1.64l0 0.27 0.27 0 0 -0.26 0.26 0 -0.06 0.48 -0.21 0.02 0 0.27 0.25 -0.01 0.28 -0.01 0 0.27 0.18 0 0.05 -0.5 0 -0.21 -0.33 0.04c0.05,-0.32 0.09,-0.33 0.11,-0.61l-0.3 0 -0.27 0 -0.22 0 -0.01 0.25z"/>
    <polygon class="fil10" points="1.9,5 2.16,5 2.16,5.25 2.43,5.25 2.43,5.02 2.7,5.02 2.7,4.76 3.4,4.69 3.43,4.49 2.44,4.48 2.16,4.48 2.16,4.74 1.89,4.74 "/>
    <polygon class="fil11" points="1.14,4.48 1.14,4.74 1.39,4.74 1.39,5 1.66,5 1.65,4.48 1.39,4.48 1.4,4.21 1.4,3.69 1.14,3.68 "/>
    <polygon class="fil12" points="1.65,2.94 1.65,3.19 1.65,3.45 2.41,3.45 2.39,3.2 1.91,3.22 1.92,2.7 1.65,2.7 "/>
    <polygon class="fil13" points="1.92,2.7 1.91,3.22 2.39,3.2 2.36,2.67 2.18,2.67 2.18,2.4 1.9,2.41 "/>
    <polygon class="fil14" points="2.44,4.48 3.43,4.49 3.45,4.22 2.44,4.22 "/>
    <polygon class="fil15" points="2.19,1.39 3.2,1.39 3.2,1.13 2.42,1.14 2.18,1.13 "/>
    <polygon class="fil16" points="1.66,5 1.65,5.25 1.9,5.25 1.9,5 1.89,4.74 2.16,4.74 2.16,4.48 1.65,4.48 "/>
    <polygon class="fil10" points="3.96,4.24 4.26,4.26 4.24,4.49 4.49,4.48 4.5,3.96 4.22,3.96 3.96,3.96 "/>
    <polygon class="fil17" points="1.65,4.48 2.16,4.48 2.44,4.48 2.44,4.22 2.08,4.22 1.65,4.22 "/>
    <polygon class="fil18" points="1.13,3.19 1.13,3.44 1.14,3.68 1.4,3.69 1.4,3.45 1.4,3.19 1.4,2.93 1.13,2.93 "/>
    <polygon class="fil19" points="3.97,1.14 3.96,1.4 3.96,1.65 4.22,1.65 4.22,0.88 3.97,0.88 "/>
    <polygon class="fil20" points="2.9,3.7 3.24,3.71 3.18,3.45 3.17,3.17 2.91,3.17 "/>
    <polygon class="fil21" points="1.9,1.13 2.18,1.13 2.18,0.88 2.17,0.61 1.89,0.61 "/>
    <polygon class="fil22" points="1.13,2.42 1.13,2.7 1.4,2.71 1.4,2.42 1.39,2.17 1.14,2.17 "/>
    <polygon class="fil23" points="3.45,1.14 3.4,1.39 3.71,1.4 3.71,1.14 3.72,0.88 3.46,0.88 "/>
    <polygon class="fil24" points="5.25,2.68 5.51,2.68 5.51,2.17 5.26,2.17 "/>
    <polygon class="fil25" points="2.94,0.36 3.46,0.36 3.46,0.11 2.94,0.11 "/>
    <polygon class="fil26" points="1.4,2.71 1.4,2.93 1.65,2.94 1.65,2.7 1.65,2.42 1.4,2.42 "/>
    <polygon class="fil24" points="0.11,2.68 0.36,2.68 0.36,2.17 0.11,2.17 "/>
    <polygon class="fil25" points="2.16,0.36 2.68,0.36 2.68,0.11 2.16,0.11 "/>
    <polygon class="fil27" points="2.17,5.51 2.67,5.51 2.67,5.25 2.43,5.25 2.16,5.25 "/>
    <polygon class="fil24" points="5.26,3.45 5.51,3.45 5.51,2.94 5.25,2.94 "/>
    <polygon class="fil27" points="2.95,5.51 3.45,5.51 3.45,5.26 2.95,5.25 "/>
    <polygon class="fil24" points="0.11,3.45 0.36,3.45 0.36,2.94 0.11,2.94 "/>
    <polygon class="fil28" points="1.66,1.91 1.65,2.15 1.86,2.13 1.92,1.65 1.66,1.65 "/>
    <polygon class="fil29" points="1.89,1.39 2.19,1.39 2.18,1.13 1.9,1.13 "/>
    <polygon class="fil30" points="3.18,3.45 3.45,3.45 3.45,3.18 3.17,3.17 "/>
    <polygon class="fil31" points="1.65,2.7 1.92,2.7 1.9,2.41 1.65,2.42 "/>
    <polygon class="fil32" points="2.67,5.51 2.95,5.51 2.95,5.25 2.67,5.25 "/>
    <polygon class="fil33" points="4.48,2.96 4.48,2.68 4.22,2.68 4.22,2.96 "/>
    <polygon class="fil34" points="5,4.22 5.25,4.22 5.25,3.95 5,3.95 "/>
    <polygon class="fil35" points="1.13,1.91 1.39,1.91 1.39,1.64 1.13,1.64 "/>
    <polygon class="fil34" points="5.25,1.66 5.25,1.39 5,1.39 5,1.66 "/>
    <polygon class="fil36" points="4.49,3.73 4.74,3.76 4.74,3.48 4.48,3.47 "/>
    <polygon class="fil34" points="0.62,4.23 0.62,3.96 0.36,3.96 0.36,4.22 "/>
    <polygon class="fil37" points="4.22,3.71 4.49,3.73 4.48,3.47 4.22,3.45 "/>
    <polygon class="fil38" points="3.97,0.88 4.22,0.88 4.23,0.62 3.96,0.61 "/>
    <polygon class="fil34" points="1.39,0.62 1.66,0.62 1.66,0.36 1.39,0.36 "/>
    <polygon class="fil34" points="0.36,1.66 0.62,1.66 0.62,1.39 0.36,1.39 "/>
    <polygon class="fil39" points="1.65,4.48 1.65,4.22 1.4,4.21 1.39,4.48 "/>
    <polygon class="fil23" points="3.72,0.88 3.97,0.88 3.96,0.61 3.71,0.61 "/>
    <polygon class="fil40" points="2.68,0.36 2.94,0.36 2.94,0.11 2.68,0.11 "/>
    <polygon class="fil41" points="1.14,2.17 1.39,2.17 1.39,1.91 1.13,1.91 "/>
    <polygon class="fil42" points="1.4,2.42 1.65,2.42 1.65,2.15 1.39,2.17 "/>
    <polygon class="fil43" points="0.88,4.48 0.89,4.23 0.62,4.23 0.62,4.48 "/>
    <polygon class="fil44" points="1.9,5.25 2.16,5.25 2.16,5 1.9,5 "/>
    <polygon class="fil45" points="3.45,5.51 3.71,5.51 3.72,5.26 3.45,5.26 "/>
    <polygon class="fil46" points="5.25,2.94 5.51,2.94 5.51,2.68 5.25,2.68 "/>
    <polygon class="fil47" points="3.43,4.49 3.7,4.47 3.7,4.22 3.45,4.22 "/>
    <polygon class="fil48" points="4.22,3.45 4.48,3.47 4.48,3.2 4.22,3.2 "/>
    <polygon class="fil49" points="1.65,5.25 1.66,5 1.39,5 1.39,5.25 "/>
    <polygon class="fil34" points="3.96,0.61 4.23,0.62 4.22,0.36 3.96,0.36 "/>
    <polygon class="fil50" points="1.4,3.19 1.65,3.19 1.65,2.94 1.4,2.93 "/>
    <polygon class="fil43" points="4.74,4.48 5,4.48 5,4.22 4.74,4.22 "/>
    <polygon class="fil46" points="0.11,2.94 0.36,2.94 0.36,2.68 0.11,2.68 "/>
    <polygon class="fil45" points="2.17,5.51 2.16,5.25 1.9,5.25 1.91,5.51 "/>
    <polygon class="fil51" points="0.88,3.19 1.13,3.19 1.13,2.93 0.87,2.94 "/>
    <polygon class="fil52" points="1.14,4.74 1.14,4.48 0.88,4.48 0.88,4.74 "/>
    <polygon class="fil53" points="4.22,0.88 4.48,0.88 4.48,0.62 4.23,0.62 "/>
    <polygon class="fil54" points="2.94,2.17 3.19,2.17 3.19,1.91 2.94,1.91 "/>
    <polygon class="fil55" points="4.22,2.68 4.48,2.68 4.48,2.42 4.22,2.42 "/>
    <polygon class="fil56" points="4.22,2.17 4.48,2.17 4.48,1.91 4.22,1.91 "/>
    <polygon class="fil57" points="0.88,2.68 1.13,2.7 1.13,2.42 0.89,2.42 "/>
    <polygon class="fil27" points="4.22,5 4.48,5 4.48,4.74 4.22,4.74 "/>
    <polygon class="fil53" points="5,1.39 5,1.14 4.74,1.14 4.74,1.39 "/>
    <polygon class="fil58" points="4.74,1.14 4.74,0.88 4.48,0.88 4.48,1.14 "/>
    <polygon class="fil59" points="4.22,2.42 4.48,2.42 4.48,2.17 4.22,2.17 "/>
    <polygon class="fil60" points="3.71,1.4 3.96,1.4 3.97,1.14 3.71,1.14 "/>
    <polygon class="fil61" points="1.39,5 1.39,4.74 1.14,4.74 1.14,5 "/>
    <polygon class="fil62" points="3.97,5 4.22,5 4.22,4.74 3.97,4.74 "/>
    <polygon class="fil53" points="1.13,0.88 1.39,0.88 1.39,0.62 1.14,0.62 "/>
    <polygon class="fil63" points="3.97,5.25 4.22,5.25 4.22,5 3.97,5 "/>
    <polygon class="fil64" points="1.4,3.45 1.65,3.45 1.65,3.19 1.4,3.19 "/>
    <polygon class="fil53" points="0.62,1.39 0.88,1.39 0.88,1.13 0.62,1.14 "/>
    <polygon class="fil65" points="5.26,3.71 5.51,3.71 5.51,3.45 5.26,3.45 "/>
    <polygon class="fil66" points="2.68,2.17 2.94,2.17 2.94,1.91 2.68,1.92 "/>
    <polygon class="fil67" points="2.68,2.42 2.94,2.42 2.94,2.17 2.68,2.17 "/>
    <polygon class="fil65" points="0.35,3.71 0.36,3.45 0.11,3.45 0.11,3.71 "/>
    <polygon class="fil68" points="3.19,2.41 3.45,2.41 3.45,2.14 3.19,2.17 "/>
    <polygon class="fil69" points="3.71,1.14 3.97,1.14 3.97,0.88 3.72,0.88 "/>
    <polygon class="fil70" points="4.22,3.96 4.5,3.96 4.49,3.73 4.22,3.71 "/>
    <polygon class="fil27" points="4.48,4.74 4.74,4.74 4.74,4.48 4.49,4.48 "/>
    <polygon class="fil58" points="0.88,1.13 1.13,1.13 1.13,0.88 0.88,0.88 "/>
    <polygon class="fil65" points="5.26,2.17 5.51,2.17 5.51,1.91 5.26,1.91 "/>
    <polygon class="fil48" points="1.39,2.17 1.65,2.15 1.66,1.91 1.39,1.91 "/>
    <polygon class="fil71" points="4.22,4.74 4.48,4.74 4.49,4.48 4.24,4.49 "/>
    <polygon class="fil65" points="0.11,2.17 0.36,2.17 0.35,1.91 0.11,1.91 "/>
    <polygon class="fil72" points="2.94,2.42 3.19,2.41 3.19,2.17 2.94,2.17 "/>
    <polygon class="fil73" points="1.4,3.69 1.65,3.71 1.65,3.45 1.4,3.45 "/>
    <polygon class="fil74" points="0.87,2.94 1.13,2.93 1.13,2.7 0.88,2.68 "/>
    <polygon class="fil65" points="3.46,0.36 3.71,0.35 3.71,0.11 3.46,0.11 "/>
    <polygon class="fil75" points="3.72,5.26 3.97,5.25 3.97,5 3.72,5 "/>
    <polygon class="fil76" points="2.41,2.17 2.68,2.17 2.68,1.92 2.41,1.96 "/>
    <polygon class="fil65" points="1.91,0.35 2.16,0.36 2.16,0.11 1.91,0.11 "/>
    <polygon class="fil77" points="1.13,3.44 1.13,3.19 0.88,3.19 0.89,3.44 "/>
    <polygon class="fil78" points="2.18,1.13 2.42,1.14 2.42,0.88 2.18,0.88 "/>
    <polygon class="fil79" points="1.13,2.93 1.4,2.93 1.4,2.71 1.13,2.7 "/>
    <polygon class="fil80" points="3.2,1.39 3.4,1.39 3.45,1.14 3.2,1.13 "/>
    <polygon class="fil81" points="0.89,2.42 1.13,2.42 1.14,2.17 0.89,2.19 "/>
    <polygon class="fil82" points="1.4,1.39 1.62,1.39 1.62,1.14 1.4,1.14 "/>
   </g>
  </g>
 </g>
</svg>
