<?xml version="1.0" encoding="UTF-8"?>
<!DOCTYPE svg PUBLIC "-//W3C//DTD SVG 1.1//EN" "http://www.w3.org/Graphics/SVG/1.1/DTD/svg11.dtd">
<!-- Creator: CorelDRAW 2020 (64-Bit) -->
<svg xmlns="http://www.w3.org/2000/svg" xml:space="preserve" width="273px" height="273px" version="1.1" style="shape-rendering:geometricPrecision; text-rendering:geometricPrecision; image-rendering:optimizeQuality; fill-rule:evenodd; clip-rule:evenodd"
viewBox="0 0 5.62 5.62"
 xmlns:xlink="http://www.w3.org/1999/xlink"
 xmlns:xodm="http://www.corel.com/coreldraw/odm/2003">
 <defs>
  <style type="text/css">
   <![CDATA[
    .str0 {stroke:#303125;stroke-width:0.21;stroke-miterlimit:22.9256}
    .fil0 {fill:#7688A1}
    .fil35 {fill:#010101}
    .fil40 {fill:#090909}
    .fil3 {fill:#0B0B0B}
    .fil45 {fill:#0C0C0C}
    .fil11 {fill:#1C1E1E}
    .fil30 {fill:#1D1F1F}
    .fil57 {fill:#1D2020}
    .fil23 {fill:#222323}
    .fil33 {fill:#252727}
    .fil54 {fill:#262828}
    .fil18 {fill:#282A2A}
    .fil2 {fill:#2B2C2C}
    .fil7 {fill:#2D2E2E}
    .fil26 {fill:#2E3030}
    .fil6 {fill:#303232}
    .fil39 {fill:#323434}
    .fil38 {fill:#373838}
    .fil29 {fill:#434444}
    .fil50 {fill:#4A4C4D}
    .fil32 {fill:#515454}
    .fil24 {fill:#6C6D6F}
    .fil42 {fill:#747777}
    .fil58 {fill:#76797A}
    .fil15 {fill:#787A7B}
    .fil5 {fill:#7B7D7D}
    .fil8 {fill:#7D7E7E}
    .fil31 {fill:#7F8081}
    .fil47 {fill:#828586}
    .fil4 {fill:#838485}
    .fil9 {fill:#858687}
    .fil10 {fill:#868788}
    .fil56 {fill:#878A8A}
    .fil21 {fill:#8A8B8C}
    .fil46 {fill:#9FA1A1}
    .fil25 {fill:#B4B6B6}
    .fil34 {fill:#C1C5C6}
    .fil52 {fill:#D1D4D5}
    .fil55 {fill:#D6D9DA}
    .fil22 {fill:#DDE1E2}
    .fil37 {fill:#E1E5E6}
    .fil53 {fill:#E3E7E8}
    .fil17 {fill:#E8EDED}
    .fil51 {fill:#E9EBED}
    .fil19 {fill:#E9EDEF}
    .fil1 {fill:#E9EFF0}
    .fil43 {fill:#EBEFF1}
    .fil44 {fill:#EDF0F2}
    .fil41 {fill:#EDF1F2}
    .fil12 {fill:#EDF2F3}
    .fil49 {fill:#EFF2F4}
    .fil20 {fill:#EFF4F5}
    .fil16 {fill:#F0F4F5}
    .fil13 {fill:#F1F5F6}
    .fil28 {fill:#F2F6F7}
    .fil27 {fill:#F4F8F9}
    .fil48 {fill:#F4F9FA}
    .fil36 {fill:#F6FAFB}
    .fil14 {fill:#F8FCFD}
    .fil59 {fill:#F9FDFD}
   ]]>
  </style>
 </defs>
 <g id="Слой_x0020_1">
  <metadata id="CorelCorpID_0Corel-Layer"/>
  <g id="_1373264917616">
   <polygon class="fil0 str0" points="3.19,0.11 2.94,0.11 2.68,0.11 2.42,0.11 2.17,0.11 1.91,0.11 1.91,0.36 1.65,0.36 1.39,0.36 1.39,0.62 1.14,0.62 1.14,0.88 0.88,0.88 0.88,1.14 0.62,1.14 0.62,1.39 0.36,1.39 0.36,1.91 0.11,1.91 0.11,2.17 0.11,2.42 0.11,2.68 0.11,2.94 0.11,3.19 0.11,3.45 0.11,3.71 0.36,3.71 0.36,4.22 0.62,4.22 0.62,4.48 0.88,4.48 0.88,4.74 1.14,4.74 1.14,5 1.39,5 1.39,5.25 1.65,5.25 1.91,5.25 1.91,5.51 2.17,5.51 2.42,5.51 2.68,5.51 2.94,5.51 3.19,5.51 3.45,5.51 3.71,5.51 3.71,5.25 3.97,5.25 4.22,5.25 4.22,5 4.48,5 4.48,4.74 4.74,4.74 4.74,4.48 5,4.48 5,4.22 5.25,4.22 5.25,3.71 5.51,3.71 5.51,3.45 5.51,3.19 5.51,2.94 5.51,2.68 5.51,2.42 5.51,2.17 5.51,1.91 5.25,1.91 5.25,1.39 5,1.39 5,1.14 4.74,1.14 4.74,0.88 4.48,0.88 4.48,0.62 4.22,0.62 4.22,0.36 3.97,0.36 3.71,0.36 3.71,0.11 3.45,0.11 "/>
   <g>
    <polygon class="fil1" points="1.39,0.62 1.39,0.88 1.14,0.88 1.14,1.14 0.88,1.14 0.88,1.39 0.36,1.39 0.36,1.91 0.11,1.91 0.11,2.17 0.36,2.17 0.36,2.68 0.11,2.68 0.11,2.94 0.36,2.94 0.36,3.45 0.11,3.45 0.11,3.71 0.36,3.71 0.36,4.22 0.88,4.22 0.88,4.48 1.14,4.48 1.14,4.74 1.39,4.74 1.39,5 1.65,5 1.65,5.25 1.91,5.25 1.91,5.51 2.17,5.51 2.17,5.25 2.68,5.25 2.68,4.74 2.42,4.74 2.42,4.22 2.17,4.22 2.17,3.97 1.91,3.97 1.91,3.71 1.65,3.71 1.65,3.45 1.39,3.45 1.39,2.68 1.65,2.68 1.65,2.17 1.91,2.17 1.91,1.91 2.17,1.91 2.17,1.65 2.42,1.65 2.42,0.88 2.68,0.88 2.68,0.36 1.65,0.36 1.65,0.62 "/>
    <polygon class="fil1" points="3.19,0.88 3.45,0.88 3.45,1.65 3.71,1.65 3.71,1.91 3.97,1.91 3.97,2.17 4.22,2.17 4.22,2.68 4.48,2.68 4.48,3.19 4.22,3.19 4.22,3.71 3.97,3.71 3.97,3.97 3.71,3.97 3.71,4.22 3.45,4.22 3.45,4.48 3.19,4.48 3.19,5 2.94,5 2.94,5.25 3.97,5.25 3.97,5 4.22,5 4.22,4.74 4.48,4.74 4.48,4.48 4.74,4.48 4.74,4.22 5.25,4.22 5.25,3.71 5.51,3.71 5.51,3.45 5.25,3.45 5.25,2.94 5.51,2.94 5.51,2.68 5.25,2.68 5.25,2.17 5.51,2.17 5.51,1.91 5.25,1.91 5.25,1.39 4.74,1.39 4.74,1.14 4.48,1.14 4.48,0.88 4.22,0.88 4.22,0.62 3.97,0.62 3.97,0.36 2.94,0.36 2.94,0.62 3.19,0.62 "/>
    <polygon class="fil2" points="3.71,2.42 3.71,2.17 3.45,2.17 3.45,1.65 3.19,1.65 3.19,1.14 2.94,1.14 2.94,2.42 "/>
    <polygon class="fil3" points="3.71,3.19 3.71,2.94 3.97,2.94 3.97,2.68 3.19,2.68 3.19,2.42 2.94,2.42 2.94,3.19 "/>
    <polygon class="fil4" points="2.17,1.91 2.17,2.42 2.68,2.42 2.68,1.39 2.42,1.39 2.42,1.91 "/>
    <polygon class="fil5" points="2.94,2.17 2.94,0.88 2.68,0.88 2.68,2.17 "/>
    <polygon class="fil6" points="2.42,3.19 2.68,3.19 2.68,2.68 1.65,2.68 1.65,2.94 2.42,2.94 "/>
    <polygon class="fil2" points="2.94,3.97 2.94,4.48 3.19,4.48 3.19,4.22 3.45,4.22 3.45,3.97 3.71,3.97 3.71,3.71 3.19,3.71 3.19,3.97 "/>
    <polygon class="fil7" points="2.94,3.45 2.94,2.42 2.68,2.42 2.68,3.45 "/>
    <polygon class="fil4" points="2.42,4.22 2.68,4.22 2.68,3.71 2.17,3.71 2.17,3.97 2.42,3.97 "/>
    <polygon class="fil8" points="2.94,4.74 2.94,3.97 2.68,3.97 2.68,4.74 "/>
    <polygon class="fil9" points="2.17,2.68 2.17,2.17 1.91,2.17 1.91,2.68 "/>
    <polygon class="fil10" points="2.42,3.71 2.42,3.45 1.91,3.45 1.91,3.71 "/>
    <polygon class="fil11" points="3.97,3.71 3.97,3.45 3.45,3.45 3.45,3.71 "/>
    <polygon class="fil12" points="2.94,0.62 2.94,0.36 2.68,0.36 2.68,0.62 "/>
    <polygon class="fil13" points="4.22,0.62 4.22,0.36 3.97,0.36 3.97,0.62 "/>
    <polygon class="fil14" points="3.19,0.88 3.19,0.62 2.94,0.62 2.94,0.88 "/>
    <polygon class="fil12" points="1.39,0.62 1.14,0.62 1.14,0.88 1.39,0.88 "/>
    <polygon class="fil15" points="2.94,0.88 2.94,0.62 2.68,0.62 2.68,0.88 "/>
    <polygon class="fil12" points="4.48,0.88 4.48,0.62 4.22,0.62 4.22,0.88 "/>
    <polygon class="fil16" points="2.68,1.14 2.68,0.88 2.42,0.88 2.42,1.14 "/>
    <polygon class="fil17" points="1.14,0.88 0.88,0.88 0.88,1.14 1.14,1.14 "/>
    <polygon class="fil18" points="3.19,1.14 3.19,0.88 2.94,0.88 2.94,1.14 "/>
    <polygon class="fil19" points="3.45,1.14 3.45,0.88 3.19,0.88 3.19,1.14 "/>
    <polygon class="fil17" points="4.74,1.14 4.74,0.88 4.48,0.88 4.48,1.14 "/>
    <polygon class="fil20" points="0.88,1.14 0.62,1.14 0.62,1.39 0.88,1.39 "/>
    <polygon class="fil21" points="2.68,1.39 2.68,1.14 2.42,1.14 2.42,1.39 "/>
    <polygon class="fil22" points="3.45,1.39 3.45,1.14 3.19,1.14 3.19,1.39 "/>
    <polygon class="fil20" points="5,1.39 5,1.14 4.74,1.14 4.74,1.39 "/>
    <polygon class="fil23" points="3.45,1.65 3.45,1.39 3.19,1.39 3.19,1.65 "/>
    <polygon class="fil5" points="2.42,1.65 2.17,1.65 2.17,1.91 2.42,1.91 "/>
    <polygon class="fil24" points="3.71,1.91 3.71,1.65 3.45,1.65 3.45,1.91 "/>
    <polygon class="fil25" points="2.17,2.17 2.17,1.91 1.91,1.91 1.91,2.17 "/>
    <polygon class="fil26" points="3.71,2.17 3.71,1.91 3.45,1.91 3.45,2.17 "/>
    <polygon class="fil14" points="3.97,2.17 3.97,1.91 3.71,1.91 3.71,2.17 "/>
    <polygon class="fil17" points="4.22,2.42 4.22,2.17 3.97,2.17 3.97,2.42 "/>
    <polygon class="fil27" points="0.36,2.42 0.36,2.17 0.11,2.17 0.11,2.42 "/>
    <polygon class="fil28" points="1.91,2.42 1.91,2.17 1.65,2.17 1.65,2.42 "/>
    <polygon class="fil29" points="2.94,2.42 2.94,2.17 2.68,2.17 2.68,2.42 "/>
    <polygon class="fil30" points="3.97,2.42 3.97,2.17 3.71,2.17 3.71,2.42 "/>
    <polygon class="fil27" points="5.51,2.42 5.51,2.17 5.25,2.17 5.25,2.42 "/>
    <polygon class="fil31" points="1.91,2.68 1.91,2.42 1.65,2.42 1.65,2.68 "/>
    <polygon class="fil13" points="0.36,2.42 0.11,2.42 0.11,2.68 0.36,2.68 "/>
    <polygon class="fil32" points="2.42,2.68 2.42,2.42 2.17,2.42 2.17,2.68 "/>
    <polygon class="fil26" points="2.68,2.68 2.68,2.42 2.42,2.42 2.42,2.68 "/>
    <polygon class="fil33" points="3.71,2.68 3.71,2.42 3.45,2.42 3.45,2.68 "/>
    <polygon class="fil2" points="3.97,2.68 3.97,2.42 3.71,2.42 3.71,2.68 "/>
    <polygon class="fil34" points="4.22,2.68 4.22,2.42 3.97,2.42 3.97,2.68 "/>
    <polygon class="fil13" points="5.51,2.68 5.51,2.42 5.25,2.42 5.25,2.68 "/>
    <polygon class="fil25" points="1.65,2.94 1.65,2.68 1.39,2.68 1.39,2.94 "/>
    <polygon class="fil35" points="4.22,2.94 4.22,2.68 3.97,2.68 3.97,2.94 "/>
    <polygon class="fil36" points="4.48,2.94 4.48,2.68 4.22,2.68 4.22,2.94 "/>
    <polygon class="fil27" points="1.91,3.19 1.91,2.94 1.65,2.94 1.65,3.19 "/>
    <polygon class="fil16" points="0.36,3.19 0.36,2.94 0.11,2.94 0.11,3.19 "/>
    <polygon class="fil37" points="1.65,3.19 1.65,2.94 1.39,2.94 1.39,3.19 "/>
    <polygon class="fil38" points="2.17,3.19 2.17,2.94 1.91,2.94 1.91,3.19 "/>
    <polygon class="fil39" points="2.42,3.19 2.42,2.94 2.17,2.94 2.17,3.19 "/>
    <polygon class="fil40" points="3.45,2.68 3.45,2.42 3.19,2.42 3.19,2.68 "/>
    <polygon class="fil4" points="3.97,3.19 3.97,2.94 3.71,2.94 3.71,3.19 "/>
    <polygon class="fil27" points="4.22,3.19 4.22,2.94 3.97,2.94 3.97,3.19 "/>
    <polygon class="fil41" points="4.48,2.94 4.22,2.94 4.22,3.19 4.48,3.19 "/>
    <polygon class="fil28" points="5.51,3.19 5.51,2.94 5.25,2.94 5.25,3.19 "/>
    <polygon class="fil42" points="1.91,3.45 1.91,3.19 1.65,3.19 1.65,3.45 "/>
    <polygon class="fil43" points="2.17,3.45 2.17,3.19 1.91,3.19 1.91,3.45 "/>
    <polygon class="fil27" points="0.36,3.19 0.11,3.19 0.11,3.45 0.36,3.45 "/>
    <polygon class="fil17" points="1.65,3.45 1.65,3.19 1.39,3.19 1.39,3.45 "/>
    <polygon class="fil41" points="2.42,3.45 2.42,3.19 2.17,3.19 2.17,3.45 "/>
    <polygon class="fil23" points="2.68,3.45 2.68,3.19 2.42,3.19 2.42,3.45 "/>
    <polygon class="fil44" points="2.17,0.36 2.17,0.11 1.91,0.11 1.91,0.36 "/>
    <polygon class="fil45" points="3.19,3.45 3.19,3.19 2.94,3.19 2.94,3.45 "/>
    <polygon class="fil23" points="3.45,3.45 3.45,3.19 3.19,3.19 3.19,3.45 "/>
    <polygon class="fil27" points="3.71,3.45 3.71,3.19 3.45,3.19 3.45,3.45 "/>
    <polygon class="fil46" points="3.97,3.45 3.97,3.19 3.71,3.19 3.71,3.45 "/>
    <polygon class="fil47" points="4.22,3.45 4.22,3.19 3.97,3.19 3.97,3.45 "/>
    <polygon class="fil48" points="5.51,3.45 5.51,3.19 5.25,3.19 5.25,3.45 "/>
    <polygon class="fil28" points="1.91,3.71 1.91,3.45 1.65,3.45 1.65,3.71 "/>
    <polygon class="fil27" points="2.42,0.36 2.42,0.11 2.17,0.11 2.17,0.36 "/>
    <polygon class="fil49" points="2.68,3.71 2.68,3.45 2.42,3.45 2.42,3.71 "/>
    <polygon class="fil50" points="2.94,3.71 2.94,3.45 2.68,3.45 2.68,3.71 "/>
    <polygon class="fil27" points="3.19,3.71 3.19,3.45 2.94,3.45 2.94,3.71 "/>
    <polygon class="fil37" points="3.45,3.71 3.45,3.45 3.19,3.45 3.19,3.71 "/>
    <polygon class="fil13" points="2.68,0.36 2.68,0.11 2.42,0.11 2.42,0.36 "/>
    <polygon class="fil51" points="4.22,3.45 3.97,3.45 3.97,3.71 4.22,3.71 "/>
    <polygon class="fil52" points="2.17,3.97 2.17,3.71 1.91,3.71 1.91,3.97 "/>
    <polygon class="fil53" points="2.94,3.97 2.94,3.71 2.68,3.71 2.68,3.97 "/>
    <polygon class="fil54" points="3.19,3.71 2.94,3.71 2.94,3.97 3.19,3.97 "/>
    <polygon class="fil48" points="3.97,3.71 3.71,3.71 3.71,3.97 3.97,3.97 "/>
    <polygon class="fil55" points="3.71,3.97 3.45,3.97 3.45,4.22 3.71,4.22 "/>
    <polygon class="fil56" points="2.42,4.22 2.42,3.97 2.17,3.97 2.17,4.22 "/>
    <polygon class="fil1" points="2.94,0.36 2.94,0.11 2.68,0.11 2.68,0.36 "/>
    <polygon class="fil31" points="2.68,4.48 2.68,4.22 2.42,4.22 2.42,4.48 "/>
    <polygon class="fil20" points="0.88,4.48 0.88,4.22 0.62,4.22 0.62,4.48 "/>
    <polygon class="fil13" points="3.19,0.36 3.19,0.11 2.94,0.11 2.94,0.36 "/>
    <polygon class="fil50" points="3.45,4.22 3.19,4.22 3.19,4.48 3.45,4.48 "/>
    <polygon class="fil20" points="5,4.22 4.74,4.22 4.74,4.48 5,4.48 "/>
    <polygon class="fil19" points="1.14,4.74 1.14,4.48 0.88,4.48 0.88,4.74 "/>
    <polygon class="fil49" points="2.68,4.74 2.68,4.48 2.42,4.48 2.42,4.74 "/>
    <polygon class="fil27" points="3.45,0.36 3.45,0.11 3.19,0.11 3.19,0.36 "/>
    <polygon class="fil57" points="3.19,4.74 3.19,4.48 2.94,4.48 2.94,4.74 "/>
    <polygon class="fil19" points="4.74,4.48 4.48,4.48 4.48,4.74 4.74,4.74 "/>
    <polygon class="fil12" points="1.39,5 1.39,4.74 1.14,4.74 1.14,5 "/>
    <polygon class="fil58" points="2.94,5 2.94,4.74 2.68,4.74 2.68,5 "/>
    <polygon class="fil59" points="3.19,4.74 2.94,4.74 2.94,5 3.19,5 "/>
    <polygon class="fil12" points="4.48,4.74 4.22,4.74 4.22,5 4.48,5 "/>
    <polygon class="fil13" points="1.65,5.25 1.65,5 1.39,5 1.39,5.25 "/>
    <polygon class="fil41" points="3.71,0.36 3.71,0.11 3.45,0.11 3.45,0.36 "/>
    <polygon class="fil49" points="2.94,5.25 2.94,5 2.68,5 2.68,5.25 "/>
    <polygon class="fil13" points="1.65,0.36 1.39,0.36 1.39,0.62 1.65,0.62 "/>
    <polygon class="fil13" points="4.22,5 3.97,5 3.97,5.25 4.22,5.25 "/>
    <polygon class="fil27" points="2.42,5.51 2.42,5.25 2.17,5.25 2.17,5.51 "/>
    <polygon class="fil13" points="2.68,5.51 2.68,5.25 2.42,5.25 2.42,5.51 "/>
    <polygon class="fil43" points="2.94,5.51 2.94,5.25 2.68,5.25 2.68,5.51 "/>
    <polygon class="fil28" points="3.19,5.51 3.19,5.25 2.94,5.25 2.94,5.51 "/>
    <polygon class="fil27" points="3.45,5.51 3.45,5.25 3.19,5.25 3.19,5.51 "/>
    <polygon class="fil44" points="3.71,5.25 3.45,5.25 3.45,5.51 3.71,5.51 "/>
   </g>
  </g>
 </g>
</svg>
