<?xml version="1.0" encoding="UTF-8"?>
<!DOCTYPE svg PUBLIC "-//W3C//DTD SVG 1.1//EN" "http://www.w3.org/Graphics/SVG/1.1/DTD/svg11.dtd">
<!-- Creator: CorelDRAW 2020 (64-Bit) -->
<svg xmlns="http://www.w3.org/2000/svg" xml:space="preserve" width="273px" height="273px" version="1.1" style="shape-rendering:geometricPrecision; text-rendering:geometricPrecision; image-rendering:optimizeQuality; fill-rule:evenodd; clip-rule:evenodd"
viewBox="0 0 5.62 5.62"
 xmlns:xlink="http://www.w3.org/1999/xlink"
 xmlns:xodm="http://www.corel.com/coreldraw/odm/2003">
 <defs>
  <style type="text/css">
   <![CDATA[
    .str0 {stroke:#303125;stroke-width:0.21;stroke-miterlimit:22.9256}
    .fil0 {fill:#7688A1}
    .fil4 {fill:#8C3CE8}
    .fil14 {fill:#8E3BE6}
    .fil24 {fill:#9039E7}
    .fil19 {fill:#903BE5}
    .fil6 {fill:#903BE6}
    .fil1 {fill:#9338E4}
    .fil15 {fill:#9438E2}
    .fil8 {fill:#9737E1}
    .fil10 {fill:#9A36E0}
    .fil11 {fill:#9C35DE}
    .fil17 {fill:#9E34DD}
    .fil18 {fill:#A033DD}
    .fil7 {fill:#A132DB}
    .fil21 {fill:#A432DA}
    .fil5 {fill:#A530D9}
    .fil26 {fill:#A72ED7}
    .fil9 {fill:#A730D7}
    .fil12 {fill:#A82DD6}
    .fil3 {fill:#AB2DD5}
    .fil16 {fill:#AC2DD4}
    .fil13 {fill:#AD2CD3}
    .fil20 {fill:#B02BD1}
    .fil25 {fill:#E7C3F3}
    .fil28 {fill:#EEDDFA}
    .fil27 {fill:#F0DFF9}
    .fil23 {fill:#F2E3FA}
    .fil29 {fill:#F6ECFC}
    .fil22 {fill:#F8F2FD}
    .fil2 {fill:white}
   ]]>
  </style>
 </defs>
 <g id="Слой_x0020_1">
  <metadata id="CorelCorpID_0Corel-Layer"/>
  <g id="_1373226274656">
   <path class="fil0 str0" d="M3.71 0.11l-0.26 0 -0.51 0 -0.27 0 -0.22 0 -0.28 0 -0.26 0 0 0.25 -0.26 0 -0.26 0 0.09 0.26 -0.33 0.01 -0.03 0.25 -0.24 0 0.02 0.25 -0.28 0.01 0 0.34 -0.25 -0.1 -0.01 0.27 0 0.23 -0.25 0.03 0 0.26 0 0.28 0 0.14 0 0.33 0 0.53 0 0.26 0.25 -0.02 0 0.28 0 0.25 0.26 0 0 0.26 0.27 0 -0.01 0.26c0.51,0.05 0.26,-0.14 0.26,0.26l0.2 0 0.06 0.25 0.25 0 0.24 0 0.02 0.26 0.26 0 0.25 0 0.28 0 0.49 0 0.26 0 0.26 0 0 -0.26 0.26 0 0.25 0 -0.07 -0.25 0.39 -0.2c0.01,-0.02 0.03,-0.03 0.05,-0.04 0.01,-0.02 0.03,-0.03 0.04,-0.04 0.32,-0.32 -0.04,-0.19 0.37,-0.24l0 -0.26 0.25 0 0 -0.25 0 -0.26 0.26 0 0 -0.26 0 -0.57 0 -0.71 0 -0.26 -0.26 0 0 -0.26 0 -0.26 -0.25 0.01 0 -0.26 -0.26 0 0 -0.26 -0.25 0 -0.01 -0.26 -0.26 0 0 -0.26 -0.25 0 -0.26 0 0 -0.25z"/>
   <g>
    <path class="fil1" d="M3.71 3.19l0 0.26 -0.25 0 0 0.54 -0.23 0c-0.1,0.92 -0.19,0.07 -0.27,0.78l-0.28 -0.03 0.01 0.48 0.01 0.29 0.49 0 0 -0.23 0 -0.29 0.24 0 0 -0.53c0.7,-0.06 -0.12,-0.16 0.52,-0.24l0.01 -0.52 0.26 0 0 -0.24 0.28 -0.01 -0.02 -0.52 -0.51 0.01 0 0.26 -0.26 -0.01z"/>
    <path class="fil2" d="M2.94 1.69l0 0.22 -0.22 0 -0.04 0.34 0 0.13 0 0.5 0 0.57c-0.4,0.05 -0.08,-0.09 -0.34,0.26l-0.23 0 -0.2 0 -0.26 0 0 0.26 0.26 0 0.01 0.25 0.48 0 0.03 -0.25 0.25 0 0 -0.26 0.25 -0.01 0.01 -0.55 0 -0.71 0 -0.27 0.25 0 0 -0.26 0.23 0 0.29 0 0.26 0 0 -0.26 -0.26 0 0 -0.27 -0.28 0.01 -0.24 0 0 0.25 -0.25 0.05z"/>
    <path class="fil3" d="M0.88 1.65l0 0.52 -0.24 0 -0.02 0.52 -0.3 -0.05 0.04 0.28 -0.25 0 0 0.53 0.28 0 0.04 -0.17c0.24,-0.23 0.15,0.13 0.2,-0.33l0.23 -0.01 0.04 -0.26 0.03 -0.24 0.21 0 0.01 -0.26 0.24 -0.02 0.02 -0.44 0.25 -0.15 0 -0.26 -0.32 0.04c-0.3,0.14 -0.17,-0.05 -0.2,0.32l-0.26 -0.02z"/>
    <path class="fil4" d="M4.98 3.19l-0.04 0.18 -0.28 0.76c-0.23,0.09 -0.21,0.01 -0.26,0.29l-0.19 0 -0.04 0.28 -0.02 0.3 0.39 -0.2c0.01,-0.02 0.03,-0.03 0.05,-0.04 0.01,-0.02 0.03,-0.03 0.04,-0.04 0.32,-0.32 -0.04,-0.19 0.37,-0.24l0 -0.26 0 -0.25 0.25 0 0 -0.26 0 -0.26 0.26 0 0 -0.57 -0.51 0.04 -0.02 0.27z"/>
    <polygon class="fil5" points="2.68,0.39 2.69,0.64 2.43,0.64 2.44,0.86 2.42,1.39 2.16,1.38 2.17,1.91 1.88,1.89 1.9,2.16 2.17,2.17 2.47,2.22 2.46,1.67 2.72,1.7 2.67,1.4 2.66,1.09 2.95,1.09 2.94,0.93 2.92,0.59 3.17,0.59 3.15,0.3 3.45,0.34 3.45,0.11 2.94,0.11 2.94,0.39 "/>
    <path class="fil6" d="M3.19 5.28l0.26 -0.01 0.26 -0.02 0.05 -0.47 0.41 -0.08 0.04 -0.28 0.06 -0.41 0.21 0 0.02 -0.56 -0.28 0.01 0 0.24 -0.26 0 -0.01 0.52c-0.64,0.08 0.18,0.18 -0.52,0.24l0 0.53 -0.24 0 0 0.29z"/>
    <polygon class="fil2" points="3.97,2.17 3.97,2.68 3.71,2.68 3.71,2.94 3.19,2.94 3.19,3.17 3.45,3.19 3.71,3.19 3.97,3.2 3.97,2.94 4.48,2.93 4.48,2.61 4.48,1.91 4.22,1.91 3.97,1.91 "/>
    <polygon class="fil7" points="1.92,2.68 1.92,2.95 1.65,2.95 1.65,3.45 1.91,3.45 1.91,3.71 2.11,3.71 2.68,2.88 2.68,2.38 2.47,2.4 2.42,2.68 "/>
    <polygon class="fil7" points="3.17,0.59 3.19,0.93 2.94,0.93 2.95,1.09 2.95,1.4 2.67,1.4 2.72,1.7 2.94,1.69 3.19,1.64 3.19,1.39 3.43,1.39 3.43,1.09 3.66,1.09 3.71,0.66 4,0.61 3.97,0.36 3.71,0.36 3.45,0.34 3.45,0.63 "/>
    <path class="fil8" d="M2.93 3.7l-0.02 0.44c-0.11,0.08 0.3,0.07 -0.22,0.07l-0.01 0.53 0.28 0.03c0.08,-0.71 0.17,0.14 0.27,-0.78l0.23 0 0 -0.54 -0.01 -0.26 -0.26 -0.02 -0.03 0.52 -0.23 0.01z"/>
    <polygon class="fil2" points="1.14,2.94 1.14,3.71 1.39,3.71 1.65,3.71 1.65,3.45 1.65,2.95 1.65,2.68 1.35,2.68 1.14,2.68 "/>
    <polygon class="fil9" points="0.36,3.69 0.36,3.97 0.62,3.98 1.14,3.9 1.14,3.71 1.14,2.94 0.86,2.94 0.84,3.41 0.59,3.41 0.59,3.69 "/>
    <path class="fil10" d="M2.4 4.22l-0.02 0.24 -0.23 0 -0.01 0.51 0.27 0.02 0 -0.27 0.27 0.02 0.01 -0.53c0.52,0 0.11,0.01 0.22,-0.07l0.02 -0.44 -0.25 0.01 0 0.26 -0.25 0 -0.03 0.25z"/>
    <path class="fil7" d="M1.14 3.9l0.01 0.35 -0.26 0 0 0.23 -0.01 0.26c0.51,0.05 0.26,-0.14 0.26,0.26l0.2 0 0.04 -0.46 0.04 -0.57 -0.03 -0.26 -0.25 0 0 0.19z"/>
    <path class="fil11" d="M3.19 2.17l0 0.27 -0.25 0 0 0.71 0.25 0.02 0 -0.23 -0.02 -0.28c0.44,-0.03 0.15,0.05 0.34,-0.18 0.15,-0.18 0.09,0.01 0.16,-0.31l0.04 -0.26 -0.29 0 0 0.26 -0.23 0z"/>
    <polygon class="fil12" points="1.61,1.15 1.66,1.31 1.66,1.57 1.41,1.72 1.39,2.16 1.61,2.14 1.61,1.86 1.88,1.89 1.89,1.36 2.16,1.38 2.16,0.87 1.87,0.84 1.92,1.15 "/>
    <polygon class="fil8" points="4.5,1.1 4.47,1.63 4.22,1.64 4.22,1.91 4.48,1.91 4.74,1.92 4.77,1.4 5,1.4 5,1.14 4.74,1.14 4.74,0.88 4.49,0.88 "/>
    <polygon class="fil6" points="4.99,2.64 4.71,2.65 4.72,2.93 5,2.92 5.51,2.88 5.51,2.17 5.21,2.17 5.17,2.59 "/>
    <polygon class="fil11" points="1.65,5 1.65,5.25 1.89,5.25 1.89,4.96 2.14,4.97 2.15,4.46 2.38,4.46 2.4,4.22 1.92,4.22 1.88,4.74 1.65,4.74 "/>
    <path class="fil10" d="M3.19 2.94l0.52 0 0 -0.26 0.26 0 0 -0.51 -0.3 0c-0.07,0.32 -0.01,0.13 -0.16,0.31 -0.19,0.23 0.1,0.15 -0.34,0.18l0.02 0.28z"/>
    <polygon class="fil13" points="0.36,1.88 0.38,2.17 0.33,2.45 0.32,2.64 0.62,2.69 0.64,2.17 0.88,2.17 0.88,1.65 0.61,1.64 0.6,1.88 "/>
    <path class="fil13" d="M1.12 0.88l0 0.25 -0.22 0 -0.02 0.52 0.26 0.02c0.03,-0.37 -0.1,-0.18 0.2,-0.32l0.14 -0.73 -0.33 0.01 -0.03 0.25z"/>
    <polygon class="fil11" points="3.94,1.37 4.2,1.38 4.2,1.1 4.5,1.1 4.49,0.88 4.48,0.62 4.22,0.62 4,0.61 "/>
    <path class="fil14" d="M4.21 4.42l0.19 0c0.05,-0.28 0.03,-0.2 0.26,-0.29l0.28 -0.76 -0.44 0.08 -0.02 0.56 -0.21 0 -0.06 0.41z"/>
    <polygon class="fil15" points="4.48,1.91 4.48,2.61 4.71,2.65 4.64,2.08 4.95,2.13 4.97,1.65 5,1.4 4.77,1.4 4.74,1.92 "/>
    <polygon class="fil16" points="1.48,0.62 1.34,1.35 1.66,1.31 1.61,1.15 1.56,0.79 1.87,0.84 1.81,0.58 2.18,0.58 2.18,0.38 1.91,0.36 1.65,0.36 1.65,0.62 "/>
    <polygon class="fil9" points="1.39,2.16 1.35,2.68 1.65,2.68 1.65,2.42 1.91,2.42 1.9,2.16 1.88,1.89 1.61,1.86 1.61,2.14 "/>
    <polygon class="fil17" points="3.43,1.39 3.71,1.38 3.94,1.37 4,0.61 3.71,0.66 3.66,1.09 3.43,1.09 "/>
    <polygon class="fil8" points="2.14,4.97 2.18,5.25 2.17,5.51 2.42,5.51 2.42,5.22 2.69,5.22 2.68,4.74 2.41,4.72 2.41,4.99 "/>
    <polygon class="fil17" points="1.38,4.54 1.34,5 1.65,5 1.65,4.74 1.88,4.74 1.92,4.22 1.65,4.22 1.65,4.51 "/>
    <polygon class="fil12" points="2.18,0.38 2.18,0.58 2.16,0.87 2.44,0.86 2.43,0.64 2.69,0.64 2.68,0.39 2.67,0.11 2.45,0.11 2.45,0.4 "/>
    <polygon class="fil5" points="0.62,4.22 0.62,4.48 0.89,4.48 0.89,4.25 1.15,4.25 1.14,3.9 0.62,3.98 "/>
    <polygon class="fil10" points="3.94,1.37 3.97,1.65 4.22,1.64 4.47,1.63 4.5,1.1 4.2,1.1 4.2,1.38 "/>
    <polygon class="fil2" points="1.65,2.68 1.92,2.68 2.42,2.68 2.47,2.4 2.17,2.42 1.91,2.42 1.65,2.42 "/>
    <polygon class="fil18" points="1.38,4.54 1.65,4.51 1.65,4.22 1.92,4.22 1.91,3.97 1.65,3.97 1.42,3.97 "/>
    <path class="fil12" d="M0.39 3.45l-0.03 0.24 0.23 0 0 -0.28 0.25 0 0.02 -0.47 -0.23 0.01c-0.05,0.46 0.04,0.1 -0.2,0.33l-0.04 0.17z"/>
    <polygon class="fil12" points="0.9,2.68 1.14,2.68 1.35,2.68 1.39,2.16 1.15,2.18 1.14,2.44 0.93,2.44 "/>
    <path class="fil17" d="M2.11 3.71l0.23 0c0.26,-0.35 -0.06,-0.21 0.34,-0.26l0 -0.57 -0.57 0.83z"/>
    <polygon class="fil14" points="3.71,5.25 3.97,5.25 3.97,5 4.15,5 4.17,4.7 3.76,4.78 "/>
    <polygon class="fil19" points="4.5,3.45 4.94,3.37 4.98,3.19 4.76,3.2 4.72,2.93 4.48,2.93 "/>
    <polygon class="fil1" points="4.71,2.65 4.99,2.64 4.95,2.13 4.64,2.08 "/>
    <polygon class="fil9" points="1.88,1.89 2.17,1.91 2.16,1.38 1.89,1.36 "/>
    <polygon class="fil9" points="2.16,1.38 2.42,1.39 2.44,0.86 2.16,0.87 "/>
    <polygon class="fil5" points="4.95,2.13 5.21,2.17 5.25,1.91 5.25,1.65 4.97,1.65 "/>
    <polygon class="fil20" points="0.62,1.48 0.61,1.64 0.88,1.65 0.9,1.13 0.62,1.14 "/>
    <polygon class="fil7" points="2.47,2.22 2.68,2.25 2.72,1.91 2.72,1.7 2.46,1.67 "/>
    <polygon class="fil10" points="2.93,3.7 3.16,3.69 3.19,3.17 2.94,3.15 "/>
    <polygon class="fil19" points="4.99,2.64 5.17,2.59 5.21,2.17 4.95,2.13 "/>
    <polygon class="fil3" points="1.61,1.15 1.92,1.15 1.87,0.84 1.56,0.79 "/>
    <polygon class="fil3" points="1.87,0.84 2.16,0.87 2.18,0.58 1.81,0.58 "/>
    <polygon class="fil21" points="2.67,1.4 2.95,1.4 2.95,1.09 2.66,1.09 "/>
    <polygon class="fil21" points="2.94,0.93 3.19,0.93 3.17,0.59 2.92,0.59 "/>
    <polygon class="fil6" points="3.17,0.59 3.45,0.63 3.45,0.34 3.15,0.3 "/>
    <polygon class="fil5" points="2.42,5.51 2.7,5.51 2.69,5.22 2.42,5.22 "/>
    <polygon class="fil6" points="2.18,0.38 2.45,0.4 2.45,0.11 2.17,0.11 "/>
    <polygon class="fil5" points="1.89,5.25 2.18,5.25 2.14,4.97 1.89,4.96 "/>
    <polygon class="fil6" points="2.68,0.39 2.94,0.39 2.94,0.11 2.67,0.11 "/>
    <polygon class="fil5" points="1.65,2.95 1.92,2.95 1.92,2.68 1.65,2.68 "/>
    <polygon class="fil5" points="5.21,2.17 5.51,2.17 5.51,1.91 5.25,1.91 "/>
    <polygon class="fil1" points="4.48,2.93 4.72,2.93 4.71,2.65 4.48,2.61 "/>
    <polygon class="fil5" points="1.65,5.25 1.65,5 1.34,5 1.4,5.25 "/>
    <polygon class="fil5" points="0.11,2.92 0.36,2.92 0.32,2.64 0.11,2.59 "/>
    <polygon class="fil5" points="0.11,2.17 0.38,2.17 0.36,1.88 0.11,1.91 "/>
    <polygon class="fil22" points="3.67,2.17 3.97,2.17 3.97,1.91 3.71,1.91 "/>
    <polygon class="fil17" points="2.94,2.44 3.19,2.44 3.19,2.17 2.94,2.17 "/>
    <polygon class="fil5" points="0.11,2.45 0.33,2.45 0.38,2.17 0.11,2.17 "/>
    <polygon class="fil6" points="1.91,0.36 2.18,0.38 2.17,0.11 1.91,0.11 "/>
    <polygon class="fil5" points="2.17,5.51 2.18,5.25 1.89,5.25 1.91,5.51 "/>
    <polygon class="fil5" points="4.97,1.65 5.25,1.65 5.25,1.39 5,1.4 "/>
    <polygon class="fil23" points="3.97,1.91 4.22,1.91 4.22,1.64 3.97,1.65 "/>
    <polygon class="fil24" points="4.98,3.19 5,2.92 4.72,2.93 4.76,3.2 "/>
    <polygon class="fil11" points="3.97,1.65 3.94,1.37 3.71,1.38 3.71,1.65 "/>
    <polygon class="fil25" points="1.91,2.42 2.17,2.42 2.17,2.17 1.9,2.16 "/>
    <polygon class="fil5" points="0.36,3.69 0.39,3.45 0.11,3.45 0.11,3.71 "/>
    <polygon class="fil26" points="0.86,2.94 1.14,2.94 1.14,2.68 0.9,2.68 "/>
    <polygon class="fil7" points="2.17,2.42 2.47,2.4 2.47,2.22 2.17,2.17 "/>
    <polygon class="fil27" points="1.65,3.71 1.91,3.71 1.91,3.45 1.65,3.45 "/>
    <polygon class="fil5" points="5.25,3.71 5.51,3.71 5.51,3.45 5.25,3.45 "/>
    <polygon class="fil5" points="5,4.22 5.25,4.22 5.25,3.97 5,3.97 "/>
    <polygon class="fil28" points="3.46,3.45 3.71,3.45 3.71,3.19 3.45,3.19 "/>
    <polygon class="fil5" points="0.62,4.22 0.62,3.98 0.36,3.97 0.36,4.22 "/>
    <polygon class="fil5" points="3.45,5.51 3.71,5.51 3.71,5.25 3.45,5.27 "/>
    <polygon class="fil5" points="3.19,5.51 3.45,5.51 3.45,5.27 3.19,5.28 "/>
    <polygon class="fil6" points="3.45,0.34 3.71,0.36 3.71,0.11 3.45,0.11 "/>
    <polygon class="fil29" points="1.42,3.97 1.65,3.97 1.65,3.71 1.39,3.71 "/>
    <polygon class="fil6" points="4,0.61 4.22,0.62 4.22,0.36 3.97,0.36 "/>
    <polygon class="fil17" points="3.19,2.17 3.42,2.17 3.42,1.91 3.19,1.91 "/>
    <polygon class="fil5" points="0.36,1.88 0.6,1.88 0.61,1.64 0.36,1.65 "/>
    <polygon class="fil20" points="0.9,1.13 1.12,1.13 1.12,0.88 0.88,0.88 "/>
    <polygon class="fil5" points="3.97,5.25 4.22,5.25 4.15,5 3.97,5 "/>
    <polygon class="fil6" points="1.48,0.62 1.65,0.62 1.65,0.36 1.39,0.36 "/>
    <polygon class="fil5" points="0.36,1.65 0.61,1.64 0.62,1.48 0.37,1.38 "/>
    <polygon class="fil18" points="2.72,1.91 2.94,1.91 2.94,1.69 2.72,1.7 "/>
    <polygon class="fil5" points="0.11,2.59 0.32,2.64 0.33,2.45 0.11,2.45 "/>
    <polygon class="fil18" points="2.47,2.4 2.68,2.38 2.68,2.25 2.47,2.22 "/>
   </g>
  </g>
 </g>
</svg>
