<?xml version="1.0" encoding="UTF-8"?>
<!DOCTYPE svg PUBLIC "-//W3C//DTD SVG 1.1//EN" "http://www.w3.org/Graphics/SVG/1.1/DTD/svg11.dtd">
<!-- Creator: CorelDRAW 2020 (64-Bit) -->
<svg xmlns="http://www.w3.org/2000/svg" xml:space="preserve" width="273px" height="273px" version="1.1" style="shape-rendering:geometricPrecision; text-rendering:geometricPrecision; image-rendering:optimizeQuality; fill-rule:evenodd; clip-rule:evenodd"
viewBox="0 0 5.62 5.62"
 xmlns:xlink="http://www.w3.org/1999/xlink"
 xmlns:xodm="http://www.corel.com/coreldraw/odm/2003">
 <defs>
  <style type="text/css">
   <![CDATA[
    .str0 {stroke:#303125;stroke-width:0.21;stroke-miterlimit:22.9256}
    .fil0 {fill:#7688A1}
    .fil1 {fill:black}
    .fil52 {fill:#0098D8}
    .fil44 {fill:#009AD8}
    .fil35 {fill:#009CD6}
    .fil25 {fill:#009ED5}
    .fil60 {fill:#00A0D4}
    .fil14 {fill:#00A1D4}
    .fil53 {fill:#00A3D3}
    .fil45 {fill:#00A5D2}
    .fil26 {fill:#00AED1}
    .fil12 {fill:#00AFCF}
    .fil4 {fill:#00B1CE}
    .fil46 {fill:#00B3CD}
    .fil27 {fill:#00B8C9}
    .fil36 {fill:#00B9CA}
    .fil15 {fill:#00BBC9}
    .fil5 {fill:#00BDC8}
    .fil47 {fill:#00C0C7}
    .fil31 {fill:#00C9C4}
    .fil16 {fill:#00CBC3}
    .fil6 {fill:#00CCC0}
    .fil38 {fill:#00D0C1}
    .fil37 {fill:#00D8BC}
    .fil7 {fill:#00DBBA}
    .fil54 {fill:#00DDBB}
    .fil17 {fill:#00DEB9}
    .fil18 {fill:#00E4B3}
    .fil28 {fill:#00E4B5}
    .fil59 {fill:#00E5B2}
    .fil19 {fill:#00E9AF}
    .fil8 {fill:#00EAAD}
    .fil13 {fill:#00EDA9}
    .fil69 {fill:#00EEA7}
    .fil20 {fill:#00F1A2}
    .fil9 {fill:#00F2A2}
    .fil21 {fill:#00F59D}
    .fil10 {fill:#00F79C}
    .fil3 {fill:#00FB97}
    .fil11 {fill:#1994D9}
    .fil67 {fill:#2093DA}
    .fil24 {fill:#2292DA}
    .fil62 {fill:#2C91DB}
    .fil34 {fill:#368EDD}
    .fil51 {fill:#468AE0}
    .fil43 {fill:#4C86E0}
    .fil23 {fill:#4F84E1}
    .fil68 {fill:#5482E2}
    .fil30 {fill:#5680E3}
    .fil42 {fill:#6578E6}
    .fil50 {fill:#6876E7}
    .fil22 {fill:#6A75E8}
    .fil70 {fill:#6E74E8}
    .fil29 {fill:#7171E9}
    .fil41 {fill:#7C68ED}
    .fil49 {fill:#7E66EE}
    .fil66 {fill:#8164EF}
    .fil33 {fill:#8562EF}
    .fil40 {fill:#8F5BF4}
    .fil48 {fill:#9056F3}
    .fil65 {fill:#9355F5}
    .fil58 {fill:#9652F7}
    .fil32 {fill:#9653F6}
    .fil39 {fill:#9950F9}
    .fil57 {fill:#9C4FF9}
    .fil61 {fill:#9D4FFA}
    .fil56 {fill:#A14CFC}
    .fil55 {fill:#A549FE}
    .fil64 {fill:#AA46FF}
    .fil63 {fill:#AE44FF}
    .fil2 {fill:#AF42FF}
   ]]>
  </style>
 </defs>
 <g id="Слой_x0020_1">
  <metadata id="CorelCorpID_0Corel-Layer"/>
  <g id="_1372843427360">
   <polygon class="fil0 str0" points="3.71,0.11 1.91,0.11 1.91,0.36 1.39,0.36 1.39,0.62 1.14,0.62 1.14,0.88 0.88,0.88 0.88,1.14 0.62,1.14 0.62,1.39 0.36,1.39 0.36,1.91 0.11,1.91 0.11,3.71 0.36,3.71 0.36,4.22 0.62,4.22 0.62,4.48 0.88,4.48 0.88,4.74 1.14,4.74 1.14,5 1.39,5 1.39,5.25 1.91,5.25 1.91,5.51 3.71,5.51 3.71,5.25 4.22,5.25 4.22,5 4.48,5 4.48,4.74 4.74,4.74 4.74,4.48 5,4.48 5,4.22 5.25,4.22 5.25,3.71 5.51,3.71 5.51,1.91 5.25,1.91 5.25,1.39 5,1.39 5,1.14 4.74,1.14 4.74,0.88 4.48,0.88 4.48,0.62 4.22,0.62 4.22,0.36 3.71,0.36 "/>
   <g>
    <path class="fil1" d="M3.97 3.97l0 0.25 -2.83 0 0 -0.25 0.25 0 0 -0.26 0.26 0 0 -0.26 2.83 0 0 0.26 -0.26 0 0 0.26 -0.25 0zm0 -1.29l0.25 0 0 0.26 0.26 0 0 0.25 -2.83 0 0 -0.25 -0.26 0 0 -0.26 -0.25 0 0 -0.26 2.83 0 0 0.26zm0 -0.77l0 0.26 -2.83 0 0 -0.26 0.25 0 0 -0.26 0.26 0 0 -0.26 2.83 0 0 0.26 -0.26 0 0 0.26 -0.25 0zm-2.06 -1.55l-0.52 0 0 0.26 -0.25 0 0 0.26 -0.26 0 0 0.26 -0.26 0 0 0.25 -0.26 0 0 0.52 -0.25 0 0 1.8 0.25 0 0 0.51 0.26 0 0 0.26 0.26 0 0 0.26 0.26 0 0 0.26 0.25 0 0 0.25 0.52 0 0 0.26 1.8 0 0 -0.26 0.51 0 0 -0.25 0.26 0 0 -0.26 0.26 0 0 -0.26 0.26 0 0 -0.26 0.25 0 0 -0.51 0.26 0 0 -1.8 -0.26 0 0 -0.52 -0.25 0 0 -0.25 -0.26 0 0 -0.26 -0.26 0 0 -0.26 -0.26 0 0 -0.26 -0.51 0 0 -0.25 -1.8 0 0 0.25z"/>
    <polygon class="fil2" points="1.91,4.22 1.91,3.97 1.14,3.97 1.14,4.22 "/>
    <polygon class="fil3" points="3.97,1.39 3.97,1.65 4.48,1.65 4.48,1.39 "/>
    <polygon class="fil4" points="1.91,1.65 1.91,1.39 1.65,1.39 1.65,1.65 "/>
    <polygon class="fil5" points="2.17,1.65 2.17,1.39 1.91,1.39 1.91,1.65 "/>
    <polygon class="fil6" points="2.42,1.65 2.42,1.39 2.17,1.39 2.17,1.65 "/>
    <polygon class="fil7" points="2.68,1.65 2.68,1.39 2.42,1.39 2.42,1.65 "/>
    <polygon class="fil8" points="3.19,1.65 3.19,1.39 2.94,1.39 2.94,1.65 "/>
    <polygon class="fil9" points="3.71,1.65 3.71,1.39 3.45,1.39 3.45,1.65 "/>
    <polygon class="fil10" points="3.97,1.65 3.97,1.39 3.71,1.39 3.71,1.65 "/>
    <polygon class="fil11" points="1.65,1.91 1.65,1.65 1.39,1.65 1.39,1.91 "/>
    <polygon class="fil12" points="2.17,1.91 2.17,1.65 1.91,1.65 1.91,1.91 "/>
    <polygon class="fil13" points="3.71,1.91 3.71,1.65 3.45,1.65 3.45,1.91 "/>
    <polygon class="fil14" points="1.91,1.91 1.91,1.65 1.65,1.65 1.65,1.91 "/>
    <polygon class="fil15" points="2.42,1.91 2.42,1.65 2.17,1.65 2.17,1.91 "/>
    <polygon class="fil16" points="2.68,1.91 2.68,1.65 2.42,1.65 2.42,1.91 "/>
    <polygon class="fil17" points="2.94,1.91 2.94,1.65 2.68,1.65 2.68,1.91 "/>
    <polygon class="fil18" points="3.19,1.91 3.19,1.65 2.94,1.65 2.94,1.91 "/>
    <polygon class="fil19" points="3.45,1.91 3.45,1.65 3.19,1.65 3.19,1.91 "/>
    <polygon class="fil20" points="3.97,1.91 3.97,1.65 3.71,1.65 3.71,1.91 "/>
    <polygon class="fil21" points="4.22,1.65 3.97,1.65 3.97,1.91 4.22,1.91 "/>
    <polygon class="fil22" points="1.39,2.17 1.39,1.91 1.14,1.91 1.14,2.17 "/>
    <polygon class="fil23" points="1.65,2.17 1.65,1.91 1.39,1.91 1.39,2.17 "/>
    <polygon class="fil24" points="1.91,2.17 1.91,1.91 1.65,1.91 1.65,2.17 "/>
    <polygon class="fil25" points="2.17,2.17 2.17,1.91 1.91,1.91 1.91,2.17 "/>
    <polygon class="fil26" points="2.42,2.17 2.42,1.91 2.17,1.91 2.17,2.17 "/>
    <polygon class="fil27" points="2.68,2.17 2.68,1.91 2.42,1.91 2.42,2.17 "/>
    <polygon class="fil6" points="2.94,2.17 2.94,1.91 2.68,1.91 2.68,2.17 "/>
    <polygon class="fil7" points="3.19,2.17 3.19,1.91 2.94,1.91 2.94,2.17 "/>
    <polygon class="fil28" points="3.45,2.17 3.45,1.91 3.19,1.91 3.19,2.17 "/>
    <polygon class="fil19" points="3.71,2.17 3.71,1.91 3.45,1.91 3.45,2.17 "/>
    <polygon class="fil13" points="3.97,1.91 3.71,1.91 3.71,2.17 3.97,2.17 "/>
    <polygon class="fil29" points="1.91,2.68 1.91,2.42 1.65,2.42 1.65,2.68 "/>
    <polygon class="fil30" points="2.17,2.68 2.17,2.42 1.91,2.42 1.91,2.68 "/>
    <polygon class="fil31" points="3.45,2.68 3.45,2.42 3.19,2.42 3.19,2.68 "/>
    <polygon class="fil32" points="1.39,2.68 1.39,2.42 1.14,2.42 1.14,2.68 "/>
    <polygon class="fil33" points="1.65,2.68 1.65,2.42 1.39,2.42 1.39,2.68 "/>
    <polygon class="fil34" points="2.42,2.68 2.42,2.42 2.17,2.42 2.17,2.68 "/>
    <polygon class="fil35" points="2.68,2.68 2.68,2.42 2.42,2.42 2.42,2.68 "/>
    <polygon class="fil26" points="2.94,2.68 2.94,2.42 2.68,2.42 2.68,2.68 "/>
    <polygon class="fil36" points="3.19,2.68 3.19,2.42 2.94,2.42 2.94,2.68 "/>
    <polygon class="fil37" points="3.71,2.68 3.71,2.42 3.45,2.42 3.45,2.68 "/>
    <polygon class="fil28" points="3.97,2.68 3.97,2.42 3.71,2.42 3.71,2.68 "/>
    <polygon class="fil38" points="3.97,2.94 3.97,2.68 3.71,2.68 3.71,2.94 "/>
    <polygon class="fil39" points="1.65,2.94 1.65,2.68 1.39,2.68 1.39,2.94 "/>
    <polygon class="fil40" points="1.91,2.94 1.91,2.68 1.65,2.68 1.65,2.94 "/>
    <polygon class="fil41" points="2.17,2.94 2.17,2.68 1.91,2.68 1.91,2.94 "/>
    <polygon class="fil42" points="2.42,2.94 2.42,2.68 2.17,2.68 2.17,2.94 "/>
    <polygon class="fil43" points="2.68,2.94 2.68,2.68 2.42,2.68 2.42,2.94 "/>
    <polygon class="fil44" points="2.94,2.94 2.94,2.68 2.68,2.68 2.68,2.94 "/>
    <polygon class="fil45" points="3.19,2.94 3.19,2.68 2.94,2.68 2.94,2.94 "/>
    <polygon class="fil46" points="3.45,2.94 3.45,2.68 3.19,2.68 3.19,2.94 "/>
    <polygon class="fil47" points="3.71,2.94 3.71,2.68 3.45,2.68 3.45,2.94 "/>
    <polygon class="fil17" points="4.22,2.94 4.22,2.68 3.97,2.68 3.97,2.94 "/>
    <polygon class="fil39" points="1.91,3.19 1.91,2.94 1.65,2.94 1.65,3.19 "/>
    <polygon class="fil48" points="2.17,3.19 2.17,2.94 1.91,2.94 1.91,3.19 "/>
    <polygon class="fil49" points="2.42,3.19 2.42,2.94 2.17,2.94 2.17,3.19 "/>
    <polygon class="fil50" points="2.68,3.19 2.68,2.94 2.42,2.94 2.42,3.19 "/>
    <polygon class="fil51" points="2.94,3.19 2.94,2.94 2.68,2.94 2.68,3.19 "/>
    <polygon class="fil52" points="3.19,3.19 3.19,2.94 2.94,2.94 2.94,3.19 "/>
    <polygon class="fil53" points="3.45,3.19 3.45,2.94 3.19,2.94 3.19,3.19 "/>
    <polygon class="fil4" points="3.71,3.19 3.71,2.94 3.45,2.94 3.45,3.19 "/>
    <polygon class="fil5" points="3.97,3.19 3.97,2.94 3.71,2.94 3.71,3.19 "/>
    <polygon class="fil6" points="4.22,3.19 4.22,2.94 3.97,2.94 3.97,3.19 "/>
    <polygon class="fil54" points="4.22,2.94 4.22,3.19 4.48,3.19 4.48,2.94 "/>
    <polygon class="fil50" points="3.19,3.71 3.19,3.45 2.94,3.45 2.94,3.71 "/>
    <polygon class="fil55" points="1.91,3.71 1.91,3.45 1.65,3.45 1.65,3.71 "/>
    <polygon class="fil56" points="2.17,3.71 2.17,3.45 1.91,3.45 1.91,3.71 "/>
    <polygon class="fil57" points="2.42,3.71 2.42,3.45 2.17,3.45 2.17,3.71 "/>
    <polygon class="fil58" points="2.68,3.71 2.68,3.45 2.42,3.45 2.42,3.71 "/>
    <polygon class="fil49" points="2.94,3.71 2.94,3.45 2.68,3.45 2.68,3.71 "/>
    <polygon class="fil23" points="3.45,3.71 3.45,3.45 3.19,3.45 3.19,3.71 "/>
    <polygon class="fil59" points="2.94,1.65 2.94,1.39 2.68,1.39 2.68,1.65 "/>
    <polygon class="fil60" points="3.97,3.71 3.97,3.45 3.71,3.45 3.71,3.71 "/>
    <polygon class="fil26" points="4.22,3.71 4.22,3.45 3.97,3.45 3.97,3.71 "/>
    <polygon class="fil27" points="4.22,3.45 4.22,3.71 4.48,3.71 4.48,3.45 "/>
    <polygon class="fil61" points="2.68,3.97 2.68,3.71 2.42,3.71 2.42,3.97 "/>
    <polygon class="fil62" points="3.97,3.97 3.97,3.71 3.71,3.71 3.71,3.97 "/>
    <polygon class="fil63" points="1.65,3.97 1.65,3.71 1.39,3.71 1.39,3.97 "/>
    <polygon class="fil64" points="1.91,3.97 1.91,3.71 1.65,3.71 1.65,3.97 "/>
    <polygon class="fil55" points="2.17,3.97 2.17,3.71 1.91,3.71 1.91,3.97 "/>
    <polygon class="fil56" points="2.42,3.97 2.42,3.71 2.17,3.71 2.17,3.97 "/>
    <polygon class="fil65" points="2.94,3.97 2.94,3.71 2.68,3.71 2.68,3.97 "/>
    <polygon class="fil66" points="3.19,3.97 3.19,3.71 2.94,3.71 2.94,3.97 "/>
    <polygon class="fil67" points="3.71,3.71 3.71,3.45 3.45,3.45 3.45,3.71 "/>
    <polygon class="fil68" points="3.71,3.97 3.71,3.71 3.45,3.71 3.45,3.97 "/>
    <polygon class="fil25" points="4.22,3.71 3.97,3.71 3.97,3.97 4.22,3.97 "/>
    <polygon class="fil29" points="3.71,4.22 3.71,3.97 3.45,3.97 3.45,4.22 "/>
    <polygon class="fil69" points="3.45,1.65 3.45,1.39 3.19,1.39 3.19,1.65 "/>
    <polygon class="fil64" points="2.17,4.22 2.17,3.97 1.91,3.97 1.91,4.22 "/>
    <polygon class="fil55" points="2.42,4.22 2.42,3.97 2.17,3.97 2.17,4.22 "/>
    <polygon class="fil56" points="2.68,4.22 2.68,3.97 2.42,3.97 2.42,4.22 "/>
    <polygon class="fil57" points="2.94,4.22 2.94,3.97 2.68,3.97 2.68,4.22 "/>
    <polygon class="fil32" points="3.19,4.22 3.19,3.97 2.94,3.97 2.94,4.22 "/>
    <polygon class="fil33" points="3.45,4.22 3.45,3.97 3.19,3.97 3.19,4.22 "/>
    <polygon class="fil30" points="3.97,3.97 3.71,3.97 3.71,4.22 3.97,4.22 "/>
    <polygon class="fil70" points="3.45,3.97 3.45,3.71 3.19,3.71 3.19,3.97 "/>
   </g>
  </g>
 </g>
</svg>
