<?xml version="1.0" encoding="UTF-8"?>
<!DOCTYPE svg PUBLIC "-//W3C//DTD SVG 1.1//EN" "http://www.w3.org/Graphics/SVG/1.1/DTD/svg11.dtd">
<!-- Creator: CorelDRAW 2020 (64-Bit) -->
<svg xmlns="http://www.w3.org/2000/svg" xml:space="preserve" width="273px" height="273px" version="1.1" style="shape-rendering:geometricPrecision; text-rendering:geometricPrecision; image-rendering:optimizeQuality; fill-rule:evenodd; clip-rule:evenodd"
viewBox="0 0 5.62 5.62"
 xmlns:xlink="http://www.w3.org/1999/xlink"
 xmlns:xodm="http://www.corel.com/coreldraw/odm/2003">
 <defs>
  <style type="text/css">
   <![CDATA[
    .str0 {stroke:#303125;stroke-width:0.21;stroke-miterlimit:22.9256}
    .fil0 {fill:#7688A1}
    .fil17 {fill:#0070C5}
    .fil21 {fill:#0073C7}
    .fil19 {fill:#0075C7}
    .fil11 {fill:#0075C8}
    .fil8 {fill:#0076C8}
    .fil20 {fill:#0077C8}
    .fil22 {fill:#0078C9}
    .fil5 {fill:#007ECB}
    .fil18 {fill:#0080CC}
    .fil4 {fill:#0082CD}
    .fil3 {fill:#0084CE}
    .fil6 {fill:#0085CE}
    .fil24 {fill:#0086CF}
    .fil1 {fill:#0089D0}
    .fil7 {fill:#009FD9}
    .fil9 {fill:#00A0D9}
    .fil25 {fill:#00ADDE}
    .fil13 {fill:#00B1E0}
    .fil26 {fill:#00BAE3}
    .fil23 {fill:#40C4E7}
    .fil14 {fill:#70CFEC}
    .fil10 {fill:#8BD4EF}
    .fil15 {fill:#C5EAF7}
    .fil16 {fill:#D3EFF9}
    .fil12 {fill:#F1F9FD}
    .fil27 {fill:#F9FDFE}
    .fil2 {fill:white}
   ]]>
  </style>
 </defs>
 <g id="Слой_x0020_1">
  <metadata id="CorelCorpID_0Corel-Layer"/>
  <g id="_1373277414608">
   <polygon class="fil0 str0" points="3.71,0.11 1.91,0.11 1.91,0.36 1.39,0.36 1.39,0.62 1.14,0.62 1.14,0.88 0.88,0.88 0.88,1.14 0.62,1.14 0.62,1.39 0.36,1.39 0.36,1.91 0.11,1.91 0.11,3.71 0.36,3.71 0.36,4.22 0.62,4.22 0.62,4.48 0.88,4.48 0.88,4.74 1.14,4.74 1.14,5 1.39,5 1.39,5.25 1.91,5.25 1.91,5.51 3.71,5.51 3.71,5.25 4.22,5.25 4.22,5 4.48,5 4.48,4.74 4.74,4.74 4.74,4.48 5,4.48 5,4.22 5.25,4.22 5.25,3.71 5.51,3.71 5.51,1.91 5.25,1.91 5.25,1.39 5,1.39 5,1.14 4.74,1.14 4.74,0.88 4.48,0.88 4.48,0.62 4.22,0.62 4.22,0.36 3.71,0.36 "/>
   <g>
    <path class="fil1" d="M1.14 2.17l0 -0.26 0 -0.25 0.26 -0.01 0 -0.25 0.24 0 2.34 0 0.24 0 0 0.25 0.26 0 0 0.26 0 0.26 0 0.25 -0.26 0 0 0.26 -0.25 0 0 0.26 0 0.25 -0.26 0 0 0.26 0 0.26 -0.26 0 0 0.26 0 0.25 -0.26 0 -0.25 0 0 0.26 0 0.26 -0.26 0 0 -0.26 0 -0.26 -0.26 0 0 -0.26 -0.25 0 0 -0.25 -0.26 0 0 -0.26 0 -0.26 -0.26 0 0 -0.25 0 -0.26 -0.26 0 0 -0.26 -0.25 0 0 -0.25zm0.77 -1.81l-0.52 0 0 0.26 -0.25 0 0 0.26 -0.26 0 0 0.26 -0.26 0 0 0.25 -0.26 0 0 0.52 -0.25 0 0 1.8 0.25 0 0 0.51 0.26 0 0 0.26 0.26 0 0 0.26 0.26 0 0 0.26 0.25 0 0 0.25 0.52 0 0 0.26 1.8 0 0 -0.26 0.51 0 0 -0.25 0.26 0 0 -0.26 0.26 0 0 -0.26 0.26 0 0 -0.26 0.25 0 0 -0.51 0.26 0 0 -1.8 -0.26 0 0 -0.52 -0.25 0 0 -0.25 -0.26 0 0 -0.26 -0.26 0 0 -0.26 -0.26 0 0 -0.26 -0.51 0 0 -0.25 -1.8 0 0 0.25z"/>
    <polygon class="fil2" points="1.39,1.91 1.39,2.17 1.39,2.42 1.65,2.42 1.65,2.16 1.65,1.91 2.42,1.91 2.68,1.91 2.68,2.17 2.68,3.45 2.68,3.71 2.42,3.71 2.42,3.96 2.42,4.22 2.68,4.22 2.68,4.48 2.94,4.48 2.94,4.22 3.19,4.22 3.19,3.97 3.19,3.71 2.94,3.71 2.94,3.45 2.94,2.17 2.94,1.91 3.19,1.91 3.97,1.91 3.97,2.14 3.97,2.42 4.22,2.42 4.22,2.17 4.22,1.91 4.22,1.65 3.98,1.65 1.64,1.65 1.4,1.65 "/>
    <polygon class="fil3" points="1.64,1.65 3.98,1.65 3.98,1.4 1.64,1.4 "/>
    <polygon class="fil4" points="2.17,2.98 2.17,3.19 2.42,3.19 2.42,3.45 2.68,3.45 2.68,2.17 2.42,2.17 2.45,2.98 "/>
    <polygon class="fil4" points="2.94,3.45 3.19,3.45 3.2,3.19 3.19,2.95 3.19,2.17 2.94,2.17 "/>
    <polygon class="fil1" points="1.91,2.42 2.17,2.42 2.17,2.68 2.17,2.98 2.45,2.98 2.42,2.17 1.91,2.16 "/>
    <polygon class="fil1" points="3.19,2.95 3.45,2.94 3.46,2.68 3.48,2.45 3.71,2.44 3.71,2.15 3.19,2.17 "/>
    <polygon class="fil2" points="1.65,2.68 1.65,2.94 1.91,2.94 1.91,3.19 2.17,3.19 2.17,2.98 2.17,2.68 1.91,2.68 1.91,2.42 1.65,2.42 "/>
    <polygon class="fil5" points="1.65,2.16 1.91,2.16 2.42,2.17 2.42,1.91 1.65,1.91 "/>
    <polygon class="fil5" points="3.19,2.17 3.71,2.15 3.97,2.14 3.97,1.91 3.19,1.91 "/>
    <polygon class="fil2" points="2.17,3.45 2.17,3.71 2.42,3.71 2.42,3.45 2.42,3.19 2.17,3.19 "/>
    <polygon class="fil2" points="3.7,2.68 3.7,2.93 3.97,2.94 3.97,2.68 3.97,2.42 3.71,2.44 "/>
    <polygon class="fil2" points="3.19,3.45 3.19,3.71 3.45,3.71 3.45,3.45 3.45,3.19 3.2,3.19 "/>
    <polygon class="fil6" points="3.71,2.44 3.97,2.42 3.97,2.14 3.71,2.15 "/>
    <polygon class="fil7" points="1.65,2.42 1.91,2.42 1.91,2.16 1.65,2.16 "/>
    <polygon class="fil8" points="3.71,3.19 3.97,3.19 3.97,2.94 3.7,2.93 "/>
    <polygon class="fil9" points="3.19,3.71 3.19,3.45 2.94,3.45 2.94,3.71 "/>
    <polygon class="fil10" points="2.94,4.48 2.68,4.48 2.68,4.74 2.94,4.74 "/>
    <polygon class="fil11" points="4.22,1.91 4.48,1.91 4.48,1.65 4.22,1.65 "/>
    <polygon class="fil12" points="3.45,3.45 3.71,3.45 3.71,3.19 3.45,3.19 "/>
    <polygon class="fil13" points="1.14,2.17 1.39,2.17 1.39,1.91 1.14,1.91 "/>
    <polygon class="fil14" points="1.65,2.68 1.65,2.42 1.39,2.42 1.39,2.68 "/>
    <polygon class="fil2" points="3.45,3.19 3.71,3.19 3.7,2.93 3.45,2.94 "/>
    <polygon class="fil15" points="3.97,2.68 4.22,2.68 4.22,2.42 3.97,2.42 "/>
    <polygon class="fil16" points="1.91,3.45 2.17,3.45 2.17,3.19 1.91,3.19 "/>
    <polygon class="fil17" points="1.91,3.19 1.91,2.94 1.65,2.94 1.65,3.19 "/>
    <polygon class="fil18" points="2.17,2.68 2.17,2.42 1.91,2.42 1.91,2.68 "/>
    <polygon class="fil19" points="3.45,3.71 3.71,3.71 3.71,3.45 3.45,3.45 "/>
    <polygon class="fil20" points="2.42,2.17 2.68,2.17 2.68,1.91 2.42,1.91 "/>
    <polygon class="fil20" points="2.94,2.17 3.19,2.17 3.19,1.91 2.94,1.91 "/>
    <polygon class="fil11" points="1.39,2.42 1.39,2.17 1.14,2.17 1.14,2.42 "/>
    <polygon class="fil21" points="4.22,2.42 4.48,2.42 4.48,2.17 4.22,2.17 "/>
    <polygon class="fil22" points="2.17,3.71 2.17,3.45 1.91,3.45 1.91,3.71 "/>
    <polygon class="fil13" points="4.22,2.17 4.48,2.17 4.48,1.91 4.22,1.91 "/>
    <polygon class="fil23" points="3.19,3.97 3.45,3.97 3.45,3.71 3.19,3.71 "/>
    <polygon class="fil24" points="3.19,4.22 3.45,4.22 3.45,3.97 3.19,3.97 "/>
    <polygon class="fil25" points="2.42,3.71 2.68,3.71 2.68,3.45 2.42,3.45 "/>
    <polygon class="fil26" points="2.42,3.96 2.42,3.71 2.17,3.71 2.17,3.96 "/>
    <polygon class="fil22" points="3.2,3.19 3.45,3.19 3.45,2.94 3.19,2.95 "/>
    <polygon class="fil21" points="1.14,1.91 1.39,1.91 1.4,1.65 1.14,1.66 "/>
    <polygon class="fil27" points="3.45,2.94 3.7,2.93 3.7,2.68 3.46,2.68 "/>
    <polygon class="fil22" points="1.4,1.65 1.64,1.65 1.64,1.4 1.4,1.4 "/>
    <polygon class="fil22" points="3.98,1.65 4.22,1.65 4.22,1.4 3.98,1.4 "/>
    <polygon class="fil6" points="3.46,2.68 3.7,2.68 3.71,2.44 3.48,2.45 "/>
   </g>
  </g>
 </g>
</svg>
