<?xml version="1.0" encoding="UTF-8"?>
<!DOCTYPE svg PUBLIC "-//W3C//DTD SVG 1.1//EN" "http://www.w3.org/Graphics/SVG/1.1/DTD/svg11.dtd">
<!-- Creator: CorelDRAW 2020 (64-Bit) -->
<svg xmlns="http://www.w3.org/2000/svg" xml:space="preserve" width="273px" height="273px" version="1.1" style="shape-rendering:geometricPrecision; text-rendering:geometricPrecision; image-rendering:optimizeQuality; fill-rule:evenodd; clip-rule:evenodd"
viewBox="0 0 5.62 5.62"
 xmlns:xlink="http://www.w3.org/1999/xlink"
 xmlns:xodm="http://www.corel.com/coreldraw/odm/2003">
 <defs>
  <style type="text/css">
   <![CDATA[
    .str0 {stroke:#2B2A29;stroke-width:0.21;stroke-miterlimit:22.9256}
    .fil0 {fill:#7688A1}
    .fil1 {fill:#0076CE}
    .fil2 {fill:white}
   ]]>
  </style>
 </defs>
 <g id="Слой_x0020_1">
  <metadata id="CorelCorpID_0Corel-Layer"/>
  <g id="_1373366218288">
   <polygon class="fil0 str0" points="3.71,0.11 1.91,0.11 1.91,0.36 1.39,0.36 1.39,0.62 1.14,0.62 1.14,0.88 0.88,0.88 0.88,1.14 0.62,1.14 0.62,1.39 0.36,1.39 0.36,1.91 0.11,1.91 0.11,3.71 0.36,3.71 0.36,4.22 0.62,4.22 0.62,4.48 0.88,4.48 0.88,4.74 1.14,4.74 1.14,4.99 1.39,4.99 1.39,5.25 1.91,5.25 1.91,5.51 3.71,5.51 3.71,5.25 4.22,5.25 4.22,4.99 4.48,4.99 4.48,4.74 4.74,4.74 4.74,4.48 4.99,4.48 4.99,4.22 5.25,4.22 5.25,3.71 5.51,3.71 5.51,1.91 5.25,1.91 5.25,1.39 4.99,1.39 4.99,1.14 4.74,1.14 4.74,0.88 4.48,0.88 4.48,0.62 4.22,0.62 4.22,0.36 3.71,0.36 "/>
   <g>
    <path class="fil1" d="M2.42 2.68l1.03 0 0 1.03 -0.51 0 0 0.51 -0.26 0 0 -0.51 -0.51 0 0 -0.52 0.25 0 0 0.26 0.77 0 0 -0.51 -0.77 0 0 -0.26zm0.77 -0.51l0.26 0 0 0.25 -0.26 0 0 -0.25zm0 0l-0.77 0 0 0.51 -0.25 0 0 -0.77 0.51 0 0 -0.52 0.26 0 0 0.52 0.25 0 0 0.26zm0 -1.29l0.52 0 0 0.26 0.26 0 0 0.25 0.25 0 0 0.26 0.26 0 0 0.26 0.26 0 0 1.8 -0.26 0 0 0.51 -0.26 0 0 0.26 -0.51 0 0 0.26 -0.52 0 0 -0.26 0.26 0 0 -0.26 0.52 0 0 -0.25 0.25 0 0 -0.52 0.26 0 0 -1.28 -0.26 0 0 -0.26 -0.25 0 0 -0.26 -0.26 0 0 -0.26 -0.26 0 0 -0.25 -0.26 0 0 -0.26zm-1.02 0.51l-0.26 0 0 0.26 -0.26 0 0 0.26 -0.26 0 0 0.26 -0.25 0 0 1.28 0.25 0 0 0.52 0.26 0 0 0.25 0.52 0 0 0.26 0.25 0 0 0.26 -0.51 0 0 -0.26 -0.52 0 0 -0.26 -0.25 0 0 -0.51 -0.26 0 0 -1.8 0.26 0 0 -0.26 0.25 0 0 -0.26 0.26 0 0 -0.25 0.26 0 0 -0.26 0.51 0 0 0.26 -0.25 0 0 0.25zm-0.26 -1.03l-0.52 0 0 0.26 -0.25 0 0 0.26 -0.26 0 0 0.26 -0.26 0 0 0.25 -0.26 0 0 0.52 -0.25 0 0 1.8 0.25 0 0 0.51 0.26 0 0 0.26 0.26 0 0 0.26 0.26 0 0 0.25 0.25 0 0 0.26 0.52 0 0 0.26 1.8 0 0 -0.26 0.51 0 0 -0.26 0.26 0 0 -0.25 0.26 0 0 -0.26 0.25 0 0 -0.26 0.26 0 0 -0.51 0.26 0 0 -1.8 -0.26 0 0 -0.52 -0.26 0 0 -0.25 -0.25 0 0 -0.26 -0.26 0 0 -0.26 -0.26 0 0 -0.26 -0.51 0 0 -0.25 -1.8 0 0 0.25z"/>
    <polygon class="fil2" points="1.91,1.14 1.65,1.14 1.65,1.39 1.39,1.39 1.39,1.65 1.14,1.65 1.14,1.91 0.88,1.91 0.88,3.71 1.14,3.71 1.14,4.22 1.39,4.22 1.39,4.48 1.91,4.48 1.91,4.74 2.42,4.74 2.42,4.48 2.17,4.48 2.17,4.22 1.65,4.22 1.65,3.97 1.39,3.97 1.39,3.45 1.14,3.45 1.14,2.17 1.39,2.17 1.39,1.91 1.65,1.91 1.65,1.65 1.91,1.65 1.91,1.39 2.17,1.39 2.17,1.14 2.42,1.14 2.42,0.88 1.91,0.88 "/>
    <polygon class="fil2" points="3.19,1.14 3.45,1.14 3.45,1.39 3.71,1.39 3.71,1.65 3.97,1.65 3.97,1.91 4.22,1.91 4.22,2.17 4.48,2.17 4.48,3.45 4.22,3.45 4.22,3.97 3.97,3.97 3.97,4.22 3.45,4.22 3.45,4.48 3.19,4.48 3.19,4.74 3.71,4.74 3.71,4.48 4.22,4.48 4.22,4.22 4.48,4.22 4.48,3.71 4.74,3.71 4.74,1.91 4.48,1.91 4.48,1.65 4.22,1.65 4.22,1.39 3.97,1.39 3.97,1.14 3.71,1.14 3.71,0.88 3.19,0.88 "/>
    <polygon class="fil2" points="2.42,2.68 2.42,2.94 3.19,2.94 3.19,3.45 2.42,3.45 2.42,3.19 2.17,3.19 2.17,3.71 2.68,3.71 2.68,4.22 2.94,4.22 2.94,3.71 3.45,3.71 3.45,2.68 "/>
    <polygon class="fil2" points="2.42,2.68 2.42,2.17 3.19,2.17 3.19,1.91 2.94,1.91 2.94,1.39 2.68,1.39 2.68,1.91 2.17,1.91 2.17,2.68 "/>
    <polygon class="fil2" points="3.19,2.17 3.19,2.42 3.45,2.42 3.45,2.17 "/>
   </g>
  </g>
 </g>
</svg>
