<?xml version="1.0" encoding="UTF-8"?>
<!DOCTYPE svg PUBLIC "-//W3C//DTD SVG 1.1//EN" "http://www.w3.org/Graphics/SVG/1.1/DTD/svg11.dtd">
<!-- Creator: CorelDRAW 2020 (64-Bit) -->
<svg xmlns="http://www.w3.org/2000/svg" xml:space="preserve" width="273px" height="273px" version="1.1" style="shape-rendering:geometricPrecision; text-rendering:geometricPrecision; image-rendering:optimizeQuality; fill-rule:evenodd; clip-rule:evenodd"
viewBox="0 0 5.62 5.62"
 xmlns:xlink="http://www.w3.org/1999/xlink"
 xmlns:xodm="http://www.corel.com/coreldraw/odm/2003">
 <defs>
  <style type="text/css">
   <![CDATA[
    .str0 {stroke:#303125;stroke-width:0.21;stroke-miterlimit:22.9256}
    .fil0 {fill:#7688A1}
    .fil28 {fill:#008787}
    .fil9 {fill:#008888}
    .fil10 {fill:#008989}
    .fil7 {fill:#008A8A}
    .fil17 {fill:#008F8F}
    .fil27 {fill:#009191}
    .fil6 {fill:#009292}
    .fil29 {fill:#009393}
    .fil2 {fill:#009494}
    .fil5 {fill:#009696}
    .fil31 {fill:#009999}
    .fil8 {fill:#009A9A}
    .fil24 {fill:#009C9C}
    .fil18 {fill:#00A2A2}
    .fil23 {fill:#00ABAB}
    .fil11 {fill:#00ADAD}
    .fil26 {fill:#00B1B1}
    .fil33 {fill:#00B5B5}
    .fil20 {fill:#25BEBE}
    .fil34 {fill:#67CDCD}
    .fil14 {fill:#82D7D7}
    .fil15 {fill:#84D1D1}
    .fil19 {fill:#87D0D0}
    .fil1 {fill:#8CD1D1}
    .fil21 {fill:#ABE4E4}
    .fil32 {fill:#ADE2E2}
    .fil25 {fill:#B2E6E6}
    .fil30 {fill:#B7E8E8}
    .fil13 {fill:#CEEDED}
    .fil4 {fill:#D1EFEF}
    .fil16 {fill:#D7F0F0}
    .fil12 {fill:#D9F2F2}
    .fil22 {fill:#F8FCFC}
    .fil3 {fill:white}
   ]]>
  </style>
 </defs>
 <g id="Слой_x0020_1">
  <metadata id="CorelCorpID_0Corel-Layer"/>
  <g id="_1373368138768">
   <polygon class="fil0 str0" points="3.71,0.11 1.91,0.11 1.91,0.36 1.39,0.36 1.39,0.62 1.14,0.62 1.14,0.88 0.88,0.88 0.88,1.14 0.62,1.14 0.62,1.39 0.36,1.39 0.36,1.91 0.11,1.91 0.11,3.71 0.36,3.71 0.36,4.22 0.62,4.22 0.62,4.48 0.88,4.48 0.88,4.74 1.14,4.74 1.14,5 1.39,5 1.39,5.25 1.91,5.25 1.91,5.51 3.71,5.51 3.71,5.25 4.22,5.25 4.22,5 4.48,5 4.48,4.74 4.74,4.74 4.74,4.48 5,4.48 5,4.22 5.25,4.22 5.25,3.71 5.51,3.71 5.51,1.91 5.25,1.91 5.25,1.39 5,1.39 5,1.14 4.74,1.14 4.74,0.88 4.48,0.88 4.48,0.62 4.22,0.62 4.22,0.36 3.71,0.36 "/>
   <g>
    <path class="fil1" d="M0.62 2.68l0 -0.26 0.26 0 0 -0.25 0 -0.26 0.26 0 0 -0.26 0.25 0 0 -0.26 2.83 0 0 0.26 0.26 0 0 0.26 0.26 0 0 0.26 0 0.25 0.26 0 0 0.26 0 0.26 -0.24 0 -0.02 0.25c-0.34,0.04 -0.08,-0.06 -0.41,0.28l-0.73 0.73c-0.08,0.09 -0.11,-0.11 -0.15,0.28l-0.26 0 0 0.26 -0.25 0 0 0.26 -0.26 0 0.01 -0.26 -0.27 0 0 -0.27 -0.25 0.01c-0.06,-0.47 0.04,-0.08 -0.2,-0.32 -0.23,-0.24 0.15,-0.14 -0.32,-0.19l0 -0.26 -0.26 0 0 -0.26 -0.25 0c-0.05,-0.46 0.04,-0.08 -0.19,-0.32 -0.24,-0.24 0.14,-0.14 -0.33,-0.19l0 -0.26zm1.29 -2.32l-0.52 0 0 0.26 -0.25 0 0 0.26 -0.26 0 0 0.26 -0.26 0 0 0.25 -0.26 0 0 0.52 -0.25 0 0 1.8 0.25 0 0 0.51 0.26 0 0 0.26 0.26 0 0 0.26 0.26 0 0 0.26 0.25 0 0 0.25 0.52 0 0 0.26 1.8 0 0 -0.26 0.51 0 0 -0.25 0.26 0 0 -0.26 0.26 0 0 -0.26 0.26 0 0 -0.26 0.25 0 0 -0.51 0.26 0 0 -1.8 -0.26 0 0 -0.52 -0.25 0 0 -0.25 -0.26 0 0 -0.26 -0.26 0 0 -0.26 -0.26 0 0 -0.26 -0.51 0 0 -0.25 -1.8 0 0 0.25z"/>
    <path class="fil2" d="M1.91 1.91l1.8 0 0.26 0 0 0.26 0 0.25 -0.26 0 0 0.26 0.26 0 0 0.26 0 0.25 -0.26 0 0 0.26 -0.26 0 -0.26 0 0 0.26 0 0.26 -0.25 0 -0.26 0 -0.26 0 0 -0.52 -0.24 -0.01 -0.25 -0.01 -0.01 -0.24 -0.27 0 0 -0.25 0 -0.26 0.26 0 0 -0.26 -0.26 0 0 -0.51 0.26 0zm-0.52 -0.26l0 0.26 -0.25 0 0 0.26 -0.26 0 0 0.25 0 0.26 -0.26 0 0 0.26c0.47,0.05 0.09,-0.05 0.33,0.19 0.23,0.24 0.14,-0.14 0.19,0.32l0.25 0 0.26 0 0 0.26 0 0.26c0.47,0.05 0.09,-0.05 0.32,0.19 0.24,0.24 0.14,-0.15 0.2,0.32l0.25 -0.01 0.28 0 -0.01 0.27 -0.01 0.26 0.26 0 0 -0.26 0 -0.26 0.25 0 0.26 0c0.04,-0.39 0.07,-0.19 0.15,-0.28l0.73 -0.73c0.33,-0.34 0.07,-0.24 0.41,-0.28l0.02 -0.25 0 -0.26 -0.02 -0.26 0 -0.25 -0.26 0 0 -0.26 -0.26 0 0 -0.26 0 -0.26 -2.83 0 0 0.26z"/>
    <polygon class="fil3" points="1.91,2.17 2.68,2.17 2.68,2.42 2.68,2.68 2.68,2.94 2.94,2.94 2.94,2.68 2.94,2.42 2.94,2.17 3.2,2.17 3.71,2.17 3.71,1.91 1.91,1.91 "/>
    <polygon class="fil3" points="2.68,3.45 2.68,3.97 2.94,3.97 2.94,3.71 2.94,3.45 2.94,3.19 2.68,3.19 "/>
    <polygon class="fil4" points="1.91,2.42 2.17,2.42 2.47,2.42 2.68,2.42 2.68,2.17 1.91,2.17 "/>
    <polygon class="fil5" points="2.68,3.97 2.68,3.45 2.42,3.45 2.42,3.97 "/>
    <polygon class="fil6" points="1.91,2.42 1.91,2.17 1.91,1.91 1.65,1.91 1.65,2.42 "/>
    <polygon class="fil4" points="3.2,2.42 3.41,2.42 3.71,2.42 3.71,2.17 3.2,2.17 "/>
    <polygon class="fil7" points="3.43,2.68 3.71,2.68 3.71,2.42 3.41,2.42 "/>
    <polygon class="fil8" points="2.69,4.74 2.7,4.47 2.42,4.47 2.42,4.74 "/>
    <polygon class="fil9" points="2.17,2.68 2.42,2.68 2.47,2.42 2.17,2.42 "/>
    <polygon class="fil10" points="3.45,2.94 3.71,2.94 3.71,2.68 3.43,2.68 "/>
    <polygon class="fil11" points="2.94,2.94 3.2,2.94 3.2,2.68 2.94,2.68 "/>
    <polygon class="fil12" points="2.94,2.42 3.2,2.42 3.2,2.17 2.94,2.17 "/>
    <polygon class="fil13" points="1.92,3.19 1.91,2.94 1.65,2.94 1.65,3.19 "/>
    <polygon class="fil14" points="2.94,2.68 3.2,2.68 3.2,2.42 2.94,2.42 "/>
    <polygon class="fil15" points="4.74,2.17 4.74,1.91 4.48,1.91 4.48,2.17 "/>
    <polygon class="fil16" points="3.45,3.19 3.71,3.19 3.71,2.94 3.45,2.94 "/>
    <polygon class="fil10" points="1.91,2.94 2.17,2.94 2.17,2.68 1.91,2.68 "/>
    <polygon class="fil17" points="3.71,2.17 3.97,2.17 3.97,1.91 3.71,1.91 "/>
    <polygon class="fil17" points="3.45,3.45 3.71,3.45 3.71,3.19 3.45,3.19 "/>
    <polygon class="fil18" points="2.42,3.45 2.68,3.45 2.68,3.19 2.42,3.19 "/>
    <polygon class="fil19" points="0.88,2.17 1.14,2.17 1.14,1.91 0.88,1.91 "/>
    <polygon class="fil20" points="0.62,2.68 0.88,2.68 0.88,2.42 0.62,2.42 "/>
    <polygon class="fil21" points="3.71,2.94 3.97,2.94 3.97,2.68 3.71,2.68 "/>
    <polygon class="fil5" points="2.42,2.94 2.68,2.94 2.68,2.68 2.42,2.68 "/>
    <polygon class="fil11" points="1.14,1.91 1.39,1.91 1.39,1.65 1.14,1.65 "/>
    <polygon class="fil8" points="2.42,3.19 2.68,3.19 2.68,2.94 2.42,2.94 "/>
    <polygon class="fil22" points="3.71,3.19 3.97,3.19 3.97,2.94 3.71,2.94 "/>
    <polygon class="fil6" points="1.65,3.71 1.65,3.45 1.39,3.45 1.39,3.71 "/>
    <polygon class="fil23" points="2.94,3.71 3.19,3.71 3.19,3.45 2.94,3.45 "/>
    <polygon class="fil11" points="2.94,3.97 3.19,3.97 3.19,3.71 2.94,3.71 "/>
    <polygon class="fil24" points="2.94,4.74 3.19,4.74 3.19,4.48 2.94,4.48 "/>
    <polygon class="fil2" points="4.48,1.91 4.48,1.65 4.22,1.65 4.22,1.91 "/>
    <polygon class="fil25" points="1.65,2.94 1.91,2.94 1.91,2.68 1.65,2.68 "/>
    <polygon class="fil7" points="1.91,2.68 2.17,2.68 2.17,2.42 1.91,2.42 "/>
    <polygon class="fil26" points="2.94,3.45 3.19,3.45 3.19,3.19 2.94,3.19 "/>
    <polygon class="fil27" points="2.17,2.94 2.42,2.94 2.42,2.68 2.17,2.68 "/>
    <polygon class="fil28" points="3.19,3.45 3.45,3.45 3.45,3.19 3.19,3.19 "/>
    <polygon class="fil27" points="3.71,2.42 3.97,2.42 3.97,2.17 3.71,2.17 "/>
    <polygon class="fil12" points="1.92,3.19 2.17,3.19 2.17,2.94 1.91,2.94 "/>
    <polygon class="fil29" points="2.68,3.19 2.94,3.19 2.94,2.94 2.68,2.94 "/>
    <polygon class="fil30" points="2.17,3.19 2.42,3.19 2.42,2.94 2.17,2.94 "/>
    <polygon class="fil31" points="2.94,3.19 3.19,3.19 3.2,2.94 2.94,2.94 "/>
    <polygon class="fil32" points="3.19,3.19 3.45,3.19 3.45,2.94 3.2,2.94 "/>
    <polygon class="fil27" points="3.2,2.94 3.45,2.94 3.43,2.68 3.2,2.68 "/>
    <polygon class="fil33" points="4.76,2.68 5,2.68 5,2.42 4.74,2.42 "/>
    <polygon class="fil28" points="2.18,3.44 2.42,3.45 2.42,3.19 2.17,3.19 "/>
    <polygon class="fil17" points="2.18,3.44 2.17,3.19 1.92,3.19 1.93,3.43 "/>
    <polygon class="fil34" points="2.42,2.68 2.68,2.68 2.68,2.42 2.47,2.42 "/>
    <polygon class="fil6" points="4.76,2.94 5,2.94 5,2.68 4.76,2.68 "/>
    <polygon class="fil9" points="3.2,2.68 3.43,2.68 3.41,2.42 3.2,2.42 "/>
   </g>
  </g>
 </g>
</svg>
