<?xml version="1.0" encoding="UTF-8"?>
<!DOCTYPE svg PUBLIC "-//W3C//DTD SVG 1.1//EN" "http://www.w3.org/Graphics/SVG/1.1/DTD/svg11.dtd">
<!-- Creator: CorelDRAW 2020 (64-Bit) -->
<svg xmlns="http://www.w3.org/2000/svg" xml:space="preserve" width="273px" height="273px" version="1.1" style="shape-rendering:geometricPrecision; text-rendering:geometricPrecision; image-rendering:optimizeQuality; fill-rule:evenodd; clip-rule:evenodd"
viewBox="0 0 5.62 5.62"
 xmlns:xlink="http://www.w3.org/1999/xlink"
 xmlns:xodm="http://www.corel.com/coreldraw/odm/2003">
 <defs>
  <style type="text/css">
   <![CDATA[
    .str0 {stroke:#303125;stroke-width:0.21;stroke-miterlimit:22.9256}
    .fil0 {fill:#7688A1}
    .fil12 {fill:#071219}
    .fil15 {fill:#07131A}
    .fil5 {fill:#091013}
    .fil8 {fill:#0A1013}
    .fil24 {fill:#0A141C}
    .fil37 {fill:#101C24}
    .fil36 {fill:#111B22}
    .fil18 {fill:#142027}
    .fil9 {fill:#152127}
    .fil6 {fill:#182027}
    .fil7 {fill:#182229}
    .fil1 {fill:#1A242A}
    .fil19 {fill:#1A272E}
    .fil38 {fill:#1C242B}
    .fil4 {fill:#1C262C}
    .fil13 {fill:#1D272E}
    .fil16 {fill:#1F292F}
    .fil17 {fill:#1F2930}
    .fil20 {fill:#20282F}
    .fil23 {fill:#212B32}
    .fil29 {fill:#293138}
    .fil26 {fill:#30393F}
    .fil25 {fill:#353D43}
    .fil27 {fill:#676B71}
    .fil30 {fill:#6C7378}
    .fil34 {fill:#6D7478}
    .fil35 {fill:#757A7E}
    .fil33 {fill:#898D90}
    .fil31 {fill:#8A8F92}
    .fil28 {fill:#DADBDC}
    .fil11 {fill:#F0F0F0}
    .fil21 {fill:#F1F2F2}
    .fil10 {fill:whitesmoke}
    .fil22 {fill:#FAFAFB}
    .fil32 {fill:#FBFCFC}
    .fil2 {fill:#FCFCFD}
    .fil3 {fill:#FDFEFE}
    .fil14 {fill:white}
   ]]>
  </style>
 </defs>
 <g id="Слой_x0020_1">
  <metadata id="CorelCorpID_0Corel-Layer"/>
  <g id="_1373220354528">
   <polygon class="fil0 str0" points="5.51,2.94 5.51,2.68 5.51,2.42 5.51,2.17 5.51,1.91 5.25,1.91 5.25,1.65 5.25,1.39 5,1.39 5,1.14 4.74,1.14 4.74,0.88 4.48,0.88 4.48,0.62 4.22,0.62 4.22,0.36 3.97,0.36 3.71,0.36 3.71,0.11 3.45,0.11 3.19,0.11 2.94,0.11 2.68,0.11 2.42,0.11 2.17,0.11 1.91,0.11 1.91,0.36 1.65,0.36 1.39,0.36 1.39,0.62 1.14,0.62 1.14,0.88 0.88,0.88 0.88,1.14 0.62,1.14 0.62,1.39 0.36,1.39 0.36,1.65 0.36,1.91 0.11,1.91 0.11,2.17 0.11,2.42 0.11,2.68 0.11,2.94 0.11,3.19 0.11,3.45 0.11,3.71 0.36,3.71 0.36,3.97 0.36,4.22 0.62,4.22 0.62,4.48 0.88,4.48 0.88,4.74 1.14,4.74 1.14,5 1.39,5 1.39,5.25 1.65,5.25 1.91,5.25 1.91,5.51 2.17,5.51 2.42,5.51 2.68,5.51 2.94,5.51 3.19,5.51 3.45,5.51 3.71,5.51 3.71,5.25 3.97,5.25 4.22,5.25 4.22,5 4.48,5 4.48,4.74 4.74,4.74 4.74,4.48 5,4.48 5,4.22 5.25,4.22 5.25,3.97 5.25,3.71 5.51,3.71 5.51,3.45 5.51,3.19 "/>
   <g>
    <polygon class="fil1" points="1.91,0.36 1.91,0.62 1.39,0.62 1.39,0.88 1.14,0.88 1.14,1.14 1.65,1.14 1.65,1.39 1.91,1.39 1.91,1.65 2.17,1.65 2.17,1.91 2.42,1.91 2.42,2.17 3.19,2.17 3.19,1.91 3.45,1.91 3.45,1.65 3.71,1.65 3.71,1.39 3.97,1.39 3.97,1.14 4.48,1.14 4.48,0.62 3.71,0.62 3.71,0.36 2.94,0.36 2.94,0.11 2.68,0.11 2.68,0.36 "/>
    <polygon class="fil1" points="4.48,1.65 4.48,1.91 4.22,1.91 4.22,2.17 3.97,2.17 3.97,2.42 3.71,2.42 3.71,2.68 3.19,2.68 3.19,2.94 3.45,2.94 3.45,3.19 3.71,3.19 3.71,3.45 3.97,3.45 3.97,3.71 4.22,3.71 4.22,3.97 4.48,3.97 4.48,4.48 5,4.48 5,3.71 5.25,3.71 5.25,2.94 5.51,2.94 5.51,2.68 5.25,2.68 5.25,1.91 5,1.91 5,1.14 4.48,1.14 4.48,1.39 4.74,1.39 4.74,1.65 "/>
    <polygon class="fil1" points="0.36,1.91 0.36,2.68 0.11,2.68 0.11,2.94 0.36,2.94 0.36,3.71 0.62,3.71 0.62,4.22 0.88,4.22 0.88,4.48 1.14,4.48 1.14,3.97 1.39,3.97 1.39,3.71 1.65,3.71 1.65,3.45 1.91,3.45 1.91,3.19 2.17,3.19 2.17,2.94 2.42,2.94 2.42,2.68 1.91,2.68 1.91,2.42 1.65,2.42 1.65,2.17 1.39,2.17 1.39,1.91 1.14,1.91 1.14,1.65 0.88,1.65 0.88,1.39 1.14,1.39 1.14,1.14 0.62,1.14 0.62,1.91 "/>
    <polygon class="fil1" points="2.42,3.71 2.42,3.97 2.17,3.97 2.17,4.22 1.65,4.22 1.65,4.48 1.14,4.48 1.14,5 1.91,5 1.91,5.25 2.68,5.25 2.68,5.51 2.94,5.51 2.94,5.25 3.71,5.25 3.71,5 4.22,5 4.22,4.74 4.48,4.74 4.48,4.48 3.97,4.48 3.97,4.22 3.45,4.22 3.45,3.97 3.19,3.97 3.19,3.71 2.94,3.71 2.94,3.45 2.68,3.45 2.68,3.71 "/>
    <polygon class="fil2" points="3.45,1.91 3.45,2.17 3.19,2.17 3.19,2.42 3.71,2.42 3.71,2.17 3.97,2.17 3.97,1.65 3.71,1.65 3.71,1.91 "/>
    <polygon class="fil3" points="1.91,2.42 2.42,2.42 2.42,2.17 2.17,2.17 2.17,1.91 1.91,1.91 1.91,1.65 1.65,1.65 1.65,2.17 1.91,2.17 "/>
    <polygon class="fil3" points="3.19,3.19 3.19,2.94 2.42,2.94 2.42,3.19 "/>
    <polygon class="fil4" points="1.65,1.39 1.65,1.14 1.14,1.14 1.14,1.39 "/>
    <polygon class="fil4" points="4.48,1.39 4.48,1.14 3.97,1.14 3.97,1.39 "/>
    <polygon class="fil4" points="3.45,0.36 3.45,0.11 3.19,0.11 3.19,0.36 "/>
    <polygon class="fil5" points="3.71,0.36 3.71,0.11 3.45,0.11 3.45,0.36 "/>
    <polygon class="fil6" points="1.65,0.62 1.65,0.36 1.39,0.36 1.39,0.62 "/>
    <polygon class="fil7" points="1.91,0.36 1.65,0.36 1.65,0.62 1.91,0.62 "/>
    <polygon class="fil7" points="3.97,0.62 3.97,0.36 3.71,0.36 3.71,0.62 "/>
    <polygon class="fil6" points="4.22,0.62 4.22,0.36 3.97,0.36 3.97,0.62 "/>
    <polygon class="fil1" points="1.39,0.62 1.14,0.62 1.14,0.88 1.39,0.88 "/>
    <polygon class="fil7" points="1.14,1.14 1.14,0.88 0.88,0.88 0.88,1.14 "/>
    <polygon class="fil7" points="4.74,1.14 4.74,0.88 4.48,0.88 4.48,1.14 "/>
    <polygon class="fil8" points="2.17,0.36 2.17,0.11 1.91,0.11 1.91,0.36 "/>
    <polygon class="fil9" points="0.62,1.65 0.62,1.39 0.36,1.39 0.36,1.65 "/>
    <polygon class="fil4" points="1.14,1.65 1.14,1.39 0.88,1.39 0.88,1.65 "/>
    <polygon class="fil10" points="1.39,1.65 1.39,1.39 1.14,1.39 1.14,1.65 "/>
    <polygon class="fil11" points="1.65,1.65 1.65,1.39 1.39,1.39 1.39,1.65 "/>
    <polygon class="fil12" points="1.91,1.65 1.91,1.39 1.65,1.39 1.65,1.65 "/>
    <polygon class="fil12" points="3.97,1.65 3.97,1.39 3.71,1.39 3.71,1.65 "/>
    <polygon class="fil11" points="4.22,1.65 4.22,1.39 3.97,1.39 3.97,1.65 "/>
    <polygon class="fil10" points="4.48,1.65 4.48,1.39 4.22,1.39 4.22,1.65 "/>
    <polygon class="fil4" points="4.48,1.39 4.48,1.65 4.74,1.65 4.74,1.39 "/>
    <polygon class="fil9" points="5.25,1.65 5.25,1.39 5,1.39 5,1.65 "/>
    <polygon class="fil12" points="3.71,1.65 3.45,1.65 3.45,1.91 3.71,1.91 "/>
    <polygon class="fil7" points="0.62,1.65 0.36,1.65 0.36,1.91 0.62,1.91 "/>
    <polygon class="fil13" points="1.39,1.91 1.39,1.65 1.14,1.65 1.14,1.91 "/>
    <polygon class="fil14" points="1.65,1.91 1.65,1.65 1.39,1.65 1.39,1.91 "/>
    <polygon class="fil15" points="2.17,1.91 2.17,1.65 1.91,1.65 1.91,1.91 "/>
    <polygon class="fil14" points="4.22,1.91 4.22,1.65 3.97,1.65 3.97,1.91 "/>
    <polygon class="fil13" points="4.48,1.65 4.22,1.65 4.22,1.91 4.48,1.91 "/>
    <polygon class="fil7" points="5.25,1.91 5.25,1.65 5,1.65 5,1.91 "/>
    <polygon class="fil5" points="0.36,2.17 0.36,1.91 0.11,1.91 0.11,2.17 "/>
    <polygon class="fil16" points="1.65,2.17 1.65,1.91 1.39,1.91 1.39,2.17 "/>
    <polygon class="fil15" points="2.42,2.17 2.42,1.91 2.17,1.91 2.17,2.17 "/>
    <polygon class="fil12" points="3.45,1.91 3.19,1.91 3.19,2.17 3.45,2.17 "/>
    <polygon class="fil17" points="4.22,1.91 3.97,1.91 3.97,2.17 4.22,2.17 "/>
    <polygon class="fil8" points="5.51,2.17 5.51,1.91 5.25,1.91 5.25,2.17 "/>
    <polygon class="fil18" points="3.19,2.42 3.19,2.17 2.94,2.17 2.94,2.42 "/>
    <polygon class="fil19" points="0.36,2.42 0.36,2.17 0.11,2.17 0.11,2.42 "/>
    <polygon class="fil20" points="1.91,2.42 1.91,2.17 1.65,2.17 1.65,2.42 "/>
    <polygon class="fil18" points="2.68,2.42 2.68,2.17 2.42,2.17 2.42,2.42 "/>
    <polygon class="fil7" points="2.94,2.42 2.94,2.17 2.68,2.17 2.68,2.42 "/>
    <polygon class="fil20" points="3.97,2.17 3.71,2.17 3.71,2.42 3.97,2.42 "/>
    <polygon class="fil19" points="5.51,2.42 5.51,2.17 5.25,2.17 5.25,2.42 "/>
    <polygon class="fil1" points="0.36,2.42 0.11,2.42 0.11,2.68 0.36,2.68 "/>
    <polygon class="fil20" points="2.17,2.68 2.17,2.42 1.91,2.42 1.91,2.68 "/>
    <polygon class="fil21" points="2.42,2.68 2.42,2.42 2.17,2.42 2.17,2.68 "/>
    <polygon class="fil22" points="2.68,2.68 2.68,2.42 2.42,2.42 2.42,2.68 "/>
    <polygon class="fil14" points="2.94,2.68 2.94,2.42 2.68,2.42 2.68,2.68 "/>
    <polygon class="fil22" points="3.19,2.68 3.19,2.42 2.94,2.42 2.94,2.68 "/>
    <polygon class="fil21" points="3.45,2.68 3.45,2.42 3.19,2.42 3.19,2.68 "/>
    <polygon class="fil16" points="3.71,2.42 3.45,2.42 3.45,2.68 3.71,2.68 "/>
    <polygon class="fil1" points="5.51,2.68 5.51,2.42 5.25,2.42 5.25,2.68 "/>
    <polygon class="fil23" points="2.68,2.94 2.68,2.68 2.42,2.68 2.42,2.94 "/>
    <polygon class="fil24" points="2.94,2.94 2.94,2.68 2.68,2.68 2.68,2.94 "/>
    <polygon class="fil23" points="3.19,2.94 3.19,2.68 2.94,2.68 2.94,2.94 "/>
    <polygon class="fil4" points="0.36,3.19 0.36,2.94 0.11,2.94 0.11,3.19 "/>
    <polygon class="fil25" points="2.42,3.19 2.42,2.94 2.17,2.94 2.17,3.19 "/>
    <polygon class="fil19" points="2.42,0.36 2.42,0.11 2.17,0.11 2.17,0.36 "/>
    <polygon class="fil26" points="3.45,3.19 3.45,2.94 3.19,2.94 3.19,3.19 "/>
    <polygon class="fil4" points="5.51,3.19 5.51,2.94 5.25,2.94 5.25,3.19 "/>
    <polygon class="fil2" points="2.42,3.45 2.42,3.19 2.17,3.19 2.17,3.45 "/>
    <polygon class="fil27" points="3.71,3.45 3.71,3.19 3.45,3.19 3.45,3.45 "/>
    <polygon class="fil28" points="2.68,3.45 2.68,3.19 2.42,3.19 2.42,3.45 "/>
    <polygon class="fil28" points="3.19,3.45 3.19,3.19 2.94,3.19 2.94,3.45 "/>
    <polygon class="fil19" points="0.36,3.45 0.36,3.19 0.11,3.19 0.11,3.45 "/>
    <polygon class="fil27" points="2.17,3.45 2.17,3.19 1.91,3.19 1.91,3.45 "/>
    <polygon class="fil29" points="2.94,3.45 2.94,3.19 2.68,3.19 2.68,3.45 "/>
    <polygon class="fil2" points="3.45,3.45 3.45,3.19 3.19,3.19 3.19,3.45 "/>
    <polygon class="fil19" points="5.51,3.45 5.51,3.19 5.25,3.19 5.25,3.45 "/>
    <polygon class="fil30" points="3.97,3.71 3.97,3.45 3.71,3.45 3.71,3.71 "/>
    <polygon class="fil8" points="0.36,3.71 0.36,3.45 0.11,3.45 0.11,3.71 "/>
    <polygon class="fil30" points="1.91,3.71 1.91,3.45 1.65,3.45 1.65,3.71 "/>
    <polygon class="fil2" points="2.17,3.71 2.17,3.45 1.91,3.45 1.91,3.71 "/>
    <polygon class="fil31" points="2.42,3.71 2.42,3.45 2.17,3.45 2.17,3.71 "/>
    <polygon class="fil4" points="2.68,3.45 2.42,3.45 2.42,3.71 2.68,3.71 "/>
    <polygon class="fil4" points="3.19,3.71 3.19,3.45 2.94,3.45 2.94,3.71 "/>
    <polygon class="fil31" points="3.45,3.71 3.45,3.45 3.19,3.45 3.19,3.71 "/>
    <polygon class="fil2" points="3.71,3.71 3.71,3.45 3.45,3.45 3.45,3.71 "/>
    <polygon class="fil5" points="5.51,3.45 5.25,3.45 5.25,3.71 5.51,3.71 "/>
    <polygon class="fil32" points="1.91,3.97 1.91,3.71 1.65,3.71 1.65,3.97 "/>
    <polygon class="fil7" points="0.62,3.97 0.62,3.71 0.36,3.71 0.36,3.97 "/>
    <polygon class="fil30" points="1.65,3.97 1.65,3.71 1.39,3.71 1.39,3.97 "/>
    <polygon class="fil33" points="2.17,3.97 2.17,3.71 1.91,3.71 1.91,3.97 "/>
    <polygon class="fil1" points="2.42,3.71 2.17,3.71 2.17,3.97 2.42,3.97 "/>
    <polygon class="fil1" points="3.45,3.97 3.45,3.71 3.19,3.71 3.19,3.97 "/>
    <polygon class="fil33" points="3.71,3.97 3.71,3.71 3.45,3.71 3.45,3.97 "/>
    <polygon class="fil32" points="3.97,3.97 3.97,3.71 3.71,3.71 3.71,3.97 "/>
    <polygon class="fil34" points="4.22,3.97 4.22,3.71 3.97,3.71 3.97,3.97 "/>
    <polygon class="fil7" points="5.25,3.97 5.25,3.71 5,3.71 5,3.97 "/>
    <polygon class="fil9" points="0.62,4.22 0.62,3.97 0.36,3.97 0.36,4.22 "/>
    <polygon class="fil35" points="1.39,4.22 1.39,3.97 1.14,3.97 1.14,4.22 "/>
    <polygon class="fil3" points="1.65,4.22 1.65,3.97 1.39,3.97 1.39,4.22 "/>
    <polygon class="fil33" points="1.91,4.22 1.91,3.97 1.65,3.97 1.65,4.22 "/>
    <polygon class="fil4" points="2.17,3.97 1.91,3.97 1.91,4.22 2.17,4.22 "/>
    <polygon class="fil1" points="3.71,4.22 3.71,3.97 3.45,3.97 3.45,4.22 "/>
    <polygon class="fil33" points="3.97,4.22 3.97,3.97 3.71,3.97 3.71,4.22 "/>
    <polygon class="fil3" points="4.22,4.22 4.22,3.97 3.97,3.97 3.97,4.22 "/>
    <polygon class="fil35" points="4.48,4.22 4.48,3.97 4.22,3.97 4.22,4.22 "/>
    <polygon class="fil9" points="5.25,3.97 5,3.97 5,4.22 5.25,4.22 "/>
    <polygon class="fil7" points="0.88,4.48 0.88,4.22 0.62,4.22 0.62,4.48 "/>
    <polygon class="fil1" points="2.68,0.11 2.42,0.11 2.42,0.36 2.68,0.36 "/>
    <polygon class="fil36" points="1.39,4.48 1.39,4.22 1.14,4.22 1.14,4.48 "/>
    <polygon class="fil36" points="1.65,4.22 1.39,4.22 1.39,4.48 1.65,4.48 "/>
    <polygon class="fil37" points="4.22,4.48 4.22,4.22 3.97,4.22 3.97,4.48 "/>
    <polygon class="fil36" points="4.48,4.48 4.48,4.22 4.22,4.22 4.22,4.48 "/>
    <polygon class="fil7" points="1.14,4.74 1.14,4.48 0.88,4.48 0.88,4.74 "/>
    <polygon class="fil7" points="4.74,4.48 4.48,4.48 4.48,4.74 4.74,4.74 "/>
    <polygon class="fil4" points="3.19,0.36 3.19,0.11 2.94,0.11 2.94,0.36 "/>
    <polygon class="fil38" points="4.48,4.74 4.22,4.74 4.22,5 4.48,5 "/>
    <polygon class="fil6" points="1.65,5.25 1.65,5 1.39,5 1.39,5.25 "/>
    <polygon class="fil7" points="1.91,5.25 1.91,5 1.65,5 1.65,5.25 "/>
    <polygon class="fil7" points="3.97,5.25 3.97,5 3.71,5 3.71,5.25 "/>
    <polygon class="fil6" points="4.22,5 3.97,5 3.97,5.25 4.22,5.25 "/>
    <polygon class="fil5" points="2.17,5.51 2.17,5.25 1.91,5.25 1.91,5.51 "/>
    <polygon class="fil19" points="2.42,5.51 2.42,5.25 2.17,5.25 2.17,5.51 "/>
    <polygon class="fil4" points="2.68,5.51 2.68,5.25 2.42,5.25 2.42,5.51 "/>
    <polygon class="fil4" points="3.19,5.51 3.19,5.25 2.94,5.25 2.94,5.51 "/>
    <polygon class="fil19" points="3.45,5.51 3.45,5.25 3.19,5.25 3.19,5.51 "/>
    <polygon class="fil8" points="3.71,5.25 3.45,5.25 3.45,5.51 3.71,5.51 "/>
   </g>
  </g>
 </g>
</svg>
